<?xml version="1.0" standalone="no"?>
<!DOCTYPE svg PUBLIC "-//W3C//DTD SVG 20010904//EN"
 "http://www.w3.org/TR/2001/REC-SVG-20010904/DTD/svg10.dtd">
<svg version="1.0" xmlns="http://www.w3.org/2000/svg"
 width="260.000000pt" height="260.000000pt" viewBox="0 0 260.000000 260.000000"
 preserveAspectRatio="xMidYMid meet">
<metadata>
Created by potrace 1.11, written by Peter Selinger 2001-2013
</metadata>
<g transform="translate(0.000000,260.000000) scale(0.100000,-0.100000)"
fill="#000000" stroke="none">
<path d="M1076 2534 c-211 -38 -432 -145 -608 -295 l-36 -31 -55 16 c-30 9
-57 16 -60 16 -6 0 -37 -100 -37 -118 0 -5 11 -13 25 -16 l25 -6 -54 -78
c-104 -149 -180 -332 -211 -506 -19 -114 -19 -318 0 -432 90 -516 503 -929
1019 -1019 114 -19 318 -19 432 0 516 90 929 503 1019 1019 19 114 19 318 0
432 -90 516 -503 929 -1019 1019 -110 19 -332 18 -440 -1z m496 -147 c404
-106 706 -407 816 -815 23 -87 26 -115 26 -272 0 -157 -3 -185 -26 -272 -110
-408 -408 -706 -816 -816 -87 -23 -115 -26 -272 -26 -157 0 -185 3 -272 26
-408 110 -706 408 -816 816 -23 87 -26 115 -26 272 0 157 3 185 26 271 14 52
40 129 57 170 32 76 126 228 177 287 l29 32 55 -16 c30 -9 56 -17 57 -18 1 -1
-9 -30 -23 -65 -22 -55 -25 -75 -22 -150 4 -102 33 -174 97 -243 61 -67 138
-102 225 -102 175 -1 300 131 301 317 l0 78 36 -6 36 -6 16 58 c9 31 13 60 9
63 -4 4 -43 17 -87 29 -65 19 -88 31 -132 71 -29 27 -73 55 -99 64 -54 18
-159 21 -200 5 -22 -8 -43 -6 -91 7 -75 20 -74 22 38 94 131 84 261 135 421
166 115 21 339 12 460 -19z m-691 -443 c113 -32 129 -39 138 -63 47 -119 -10
-257 -115 -281 -60 -14 -112 4 -164 59 -49 50 -70 102 -70 170 0 63 43 151 74
151 6 0 68 -16 137 -36z"/>
<path d="M1584 1917 l-192 -142 22 -30 c55 -79 54 -79 69 -66 12 9 16 7 21
-14 l6 -25 355 0 355 0 0 65 0 65 -77 1 c-43 1 -68 4 -55 6 26 5 25 3 11 76
-7 31 -17 57 -23 57 -6 0 -93 -18 -193 -39 -101 -21 -183 -37 -183 -35 0 1 38
30 85 64 l84 61 -35 49 c-20 28 -41 50 -47 50 -7 -1 -98 -65 -203 -143z"/>
<path d="M293 1354 c-10 -26 15 -242 37 -324 11 -41 43 -120 70 -176 184 -372
592 -599 999 -554 135 15 227 41 347 100 249 123 452 367 524 630 22 82 47
298 37 324 -6 15 -92 16 -1007 16 -915 0 -1001 -1 -1007 -16z m166 -201 c-1
-83 -10 -72 -24 26 -6 43 -4 51 9 51 13 0 16 -13 15 -77z m311 -234 l0 -310
-29 21 c-17 11 -57 51 -90 88 l-61 67 0 222 0 223 90 0 90 0 0 -311z m310 -75
l0 -386 -31 6 c-17 3 -58 18 -90 32 l-59 27 0 353 0 354 90 0 90 0 0 -386z
m310 -14 l0 -400 -90 0 -90 0 0 400 0 400 90 0 90 0 0 -400z m310 46 l0 -353
-59 -27 c-32 -14 -73 -29 -90 -32 l-31 -6 0 386 0 386 90 0 90 0 0 -354z m310
131 l0 -222 -61 -67 c-33 -37 -73 -77 -90 -88 l-29 -21 0 310 0 311 90 0 90 0
0 -223z m155 172 c-14 -98 -23 -109 -24 -26 -1 64 2 77 15 77 13 0 15 -8 9
-51z"/>
<path d="M810 1755 l0 -75 65 0 65 0 0 75 0 75 -65 0 -65 0 0 -75z"/>
</g>
</svg>
