<?xml version="1.0" encoding="UTF-8" standalone="no"?>
<!-- Created with Inkscape (http://www.inkscape.org/) -->

<svg
   width="280.02222mm"
   height="163.40042mm"
   viewBox="0 0 280.02222 163.40042"
   version="1.1"
   id="svg8"
   inkscape:version="1.1.1 (3bf5ae0d25, 2021-09-20)"
   sodipodi:docname="acu_logo.svg"
   xmlns:inkscape="http://www.inkscape.org/namespaces/inkscape"
   xmlns:sodipodi="http://sodipodi.sourceforge.net/DTD/sodipodi-0.dtd"
   xmlns="http://www.w3.org/2000/svg"
   xmlns:svg="http://www.w3.org/2000/svg"
   xmlns:rdf="http://www.w3.org/1999/02/22-rdf-syntax-ns#"
   xmlns:cc="http://creativecommons.org/ns#"
   xmlns:dc="http://purl.org/dc/elements/1.1/">
  <defs
     id="defs2" />
  <sodipodi:namedview
     id="base"
     pagecolor="#d6a6a6"
     bordercolor="#666666"
     borderopacity="1.0"
     inkscape:pageopacity="0"
     inkscape:pageshadow="2"
     inkscape:zoom="0.34322808"
     inkscape:cx="-202.48926"
     inkscape:cy="-537.54343"
     inkscape:document-units="mm"
     inkscape:current-layer="g27"
     showgrid="false"
     inkscape:window-width="1852"
     inkscape:window-height="1043"
     inkscape:window-x="68"
     inkscape:window-y="0"
     inkscape:window-maximized="1"
     inkscape:pagecheckerboard="true"
     fit-margin-top="0"
     fit-margin-left="0"
     fit-margin-right="0"
     fit-margin-bottom="0" />
  <metadata
     id="metadata5">
    <rdf:RDF>
      <cc:Work
         rdf:about="">
        <dc:format>image/svg+xml</dc:format>
        <dc:type
           rdf:resource="http://purl.org/dc/dcmitype/StillImage" />
      </cc:Work>
    </rdf:RDF>
  </metadata>
  <g
     inkscape:label="Layer 1"
     inkscape:groupmode="layer"
     id="layer1"
     transform="translate(-8.8354741,-109.10533)">
    <g
       id="g27"
       transform="translate(1345.5952,426.35714)">
      <path
         style="fill:#ffffff;fill-opacity:1;stroke-width:0.0275482"
         d="m -1199.5382,-153.85857 c -0.8133,-0.0206 -2.5556,-0.098 -3.0823,-0.13692 -11.2751,-0.8325 -22.1993,-4.16578 -32.1756,-9.81761 -4.8587,-2.75267 -9.6157,-6.18469 -13.7681,-9.93313 -3.3145,-2.99231 -6.9947,-6.9988 -9.9333,-10.81416 -1.1156,-1.44847 -1.771,-2.36729 -3.0434,-4.2663 l -0.3762,-0.56136 -30.5929,-0.017 c -29.9927,-0.0166 -32.9991,-0.0258 -35.5949,-0.1092 -1.9181,-0.0616 -2.6965,-0.13332 -3.3662,-0.31025 -0.5778,-0.15265 -1.5547,-0.70809 -2.1901,-1.24542 -0.7938,-0.67117 -1.5843,-1.57267 -2.0234,-2.30744 -0.2288,-0.38298 -0.5919,-1.16502 -0.6645,-1.43173 -0.2371,-0.86931 -0.306,-2.08427 -0.3735,-6.59198 -0.049,-3.33086 -0.05,-65.46813 0,-68.85012 0.066,-4.46949 0.137,-5.73138 0.3714,-6.60253 0.084,-0.31049 0.4969,-1.16926 0.766,-1.591 0.2852,-0.44725 0.5531,-0.78148 1.0451,-1.30383 0.5076,-0.53895 0.9849,-0.96316 1.4236,-1.26535 0.3789,-0.26084 1.1436,-0.66907 1.4427,-0.77007 0.7558,-0.25526 1.8245,-0.33749 5.394,-0.41511 1.0131,-0.022 10.9335,-0.0348 33.1019,-0.0426 l 31.6554,-0.0111 0.2207,-0.34253 c 0.6074,-0.94163 1.9801,-2.84524 3.0607,-4.24394 3.5988,-4.65835 7.8048,-9.01054 12.2784,-12.705 11.726,-9.68382 25.6965,-15.61872 40.6521,-17.26964 4.7416,-0.52346 10.5961,-0.58123 15.6009,-0.15398 11.8556,1.01206 23.504,4.88637 33.6221,11.18285 8.5445,5.31725 15.9297,12.13826 21.9865,20.30707 0.7592,1.02395 1.8338,2.55252 2.1252,3.02298 l 0.1253,0.20219 31.5888,0.0111 c 22.0618,0.008 32.0251,0.0206 33.0352,0.0426 3.5964,0.078 4.645,0.16068 5.4135,0.42696 0.3073,0.10651 1.061,0.51502 1.4543,0.78827 0.4383,0.30454 0.7813,0.60781 1.3118,1.15994 0.7533,0.78418 1.1305,1.31274 1.548,2.17 0.3353,0.68803 0.4182,0.98039 0.5037,1.77522 0.2288,2.1267 0.2578,6.62553 0.2578,40.05264 0,34.13131 -0.03,38.40304 -0.2848,40.27719 -0.086,0.63014 -0.1725,0.914 -0.4598,1.50162 -0.4536,0.92738 -0.77,1.3693 -1.5898,2.22023 -0.5672,0.58898 -0.9146,0.89466 -1.3601,1.19713 -0.2872,0.19491 -0.9536,0.56388 -1.2289,0.68035 -0.6885,0.29121 -1.7626,0.39344 -4.8762,0.46404 -2.7388,0.062 -11.8323,0.0819 -37.8319,0.0827 l -27.0706,5.6e-4 -0.064,0.0912 c -0.036,0.0502 -0.3361,0.4954 -0.6678,0.9894 -1.7409,2.59344 -4.3339,5.9352 -6.4465,8.30804 -4.9126,5.51788 -10.3727,10.18613 -16.5229,14.12647 -8.5829,5.49902 -18.191,9.24428 -28.1332,10.96636 -3.1359,0.54318 -5.8722,0.84106 -9.4364,1.02734 -0.5325,0.0279 -6.0021,0.0556 -6.8272,0.0347 z"
         id="path31"
         inkscape:connector-curvature="0" />
      <path
         style="fill:#000000;stroke-width:0.0264045"
         d="m -1198.2186,-159.75505 c -0.9648,-0.0194 -2.6953,-0.0924 -3.3798,-0.14254 -10.9513,-0.80265 -21.5561,-3.93245 -31.2497,-9.22275 -4.7449,-2.58956 -9.3904,-5.8182 -13.4453,-9.34452 -3.237,-2.81498 -6.831,-6.58407 -9.7006,-10.17335 -1.0898,-1.36311 -1.7354,-2.23483 -2.9719,-4.01348 l -0.3672,-0.52809 -0.1578,-0.0169 c -0.087,-0.009 -13.1151,-0.0184 -28.9519,-0.0202 -16.4339,-0.002 -30.0182,-0.0143 -31.6458,-0.029 -4.9886,-0.045 -6.2255,-0.10442 -7.1687,-0.34446 -0.5643,-0.1436 -1.5182,-0.66614 -2.1388,-1.17161 -0.7752,-0.6314 -1.5472,-1.47948 -1.9759,-2.17071 -0.2235,-0.36029 -0.578,-1.09599 -0.649,-1.34689 -0.2445,-0.86358 -0.3059,-2.02873 -0.3636,-6.90107 -0.046,-3.8521 -0.046,-57.43759 0,-61.28483 0.043,-3.58648 0.08,-4.79735 0.1772,-5.79579 0.083,-0.853 0.1664,-1.15651 0.4936,-1.8066 0.4114,-0.81701 0.7432,-1.27305 1.4593,-2.0055 0.4957,-0.50702 0.9618,-0.90608 1.3904,-1.19037 0.3698,-0.24537 1.1167,-0.62942 1.4087,-0.72443 0.7807,-0.25396 1.922,-0.33069 5.7958,-0.38965 1.2544,-0.0191 12.0938,-0.0328 32.3001,-0.0408 l 30.4122,-0.0121 0.2152,-0.32146 c 0.5924,-0.88506 1.9335,-2.6764 2.9883,-3.99169 3.5145,-4.38232 7.6219,-8.47659 11.9907,-11.95214 11.4511,-9.10999 25.0942,-14.69319 39.6991,-16.24629 3.5192,-0.37422 7.2834,-0.48113 10.7335,-0.30483 12.4273,0.63505 24.6482,4.34052 35.2235,10.68016 8.3443,5.00217 15.5564,11.41898 21.4713,19.10372 0.7409,0.96255 1.7909,2.40128 2.0749,2.84309 l 0.1218,0.18944 30.3472,0.0121 c 20.1001,0.008 30.9847,0.0218 32.2351,0.0407 3.9053,0.0593 5.0221,0.13625 5.8146,0.40079 0.3002,0.10021 1.0361,0.48449 1.4202,0.74155 0.4281,0.2865 0.763,0.5718 1.2811,1.09121 0.7358,0.73771 1.104,1.23496 1.5119,2.04142 0.257,0.50818 0.3212,0.67861 0.4003,1.06272 0.1562,0.75797 0.2167,1.89442 0.2718,5.10927 0.049,2.83427 0.049,61.37306 0,64.22894 -0.059,3.47926 -0.1228,4.52132 -0.3255,5.3337 -0.062,0.25053 -0.1203,0.39143 -0.3304,0.80534 -0.4428,0.87242 -0.7518,1.28816 -1.5523,2.08866 -0.7633,0.76327 -1.1982,1.09302 -1.974,1.49662 -0.4763,0.24781 -0.6515,0.32007 -0.9728,0.40118 -0.7016,0.17714 -1.7505,0.24837 -4.5548,0.30928 -0.9629,0.0209 -10.6,0.0345 -32.2634,0.0454 l -30.8904,0.0156 -0.062,0.0792 c -0.034,0.0436 -0.3311,0.46538 -0.66,0.93736 -1.7103,2.45372 -4.2379,5.59233 -6.3049,7.82893 -4.7975,5.1909 -10.1297,9.58252 -16.1356,13.28936 -8.3818,5.17317 -17.7648,8.69649 -27.4739,10.31653 -3.0722,0.5126 -6.0305,0.82136 -9.2416,0.96451 -0.6076,0.0271 -3.5459,0.051 -4.3303,0.0352 z m 2.2576,-12.76336 c 1.9067,-0.0512 3.8402,-0.14057 4.8716,-0.22503 1.4953,-0.12246 4.011,-0.45354 5.5185,-0.72626 1.0461,-0.18924 3.0698,-0.60537 3.7099,-0.76284 2.1341,-0.52504 5.2505,-1.48391 7.2721,-2.23752 5.7532,-2.14461 11.2152,-5.15698 16.0959,-8.87703 3.2687,-2.49145 6.4098,-5.41471 9.2533,-8.61162 3.6058,-4.05395 6.4401,-8.24437 9.0409,-13.36638 2.4508,-4.82652 4.3794,-10.34258 5.4404,-15.56029 0.1088,-0.53464 0.4882,-2.60835 0.6377,-3.48485 0.1009,-0.59155 0.2763,-2.08642 0.2763,-2.35502 v -0.0874 h -8.0519 c -4.8362,0 -8.0577,0.01 -8.0667,0.0241 -0.01,0.0133 -0.08,0.38459 -0.1588,0.82514 -1.4193,7.90071 -4.2276,14.50011 -8.7698,20.6085 -4.1638,5.59964 -9.4154,10.13182 -15.5233,13.39684 -5.2811,2.82303 -11.1737,4.64486 -17.2422,5.33081 -2.8627,0.32359 -6.827,0.3039 -10.4693,-0.052 -5.6647,-0.55349 -11.5925,-2.3941 -16.8989,-5.24724 -8.7813,-4.72142 -15.7963,-11.99058 -20.1487,-20.87862 -2.0407,-4.16746 -3.3913,-8.41508 -4.2692,-13.42668 l -0.099,-0.5677 -8.0516,-0.007 c -4.4285,-0.004 -8.0607,0.002 -8.0717,0.0133 -0.024,0.0243 0.1115,1.36058 0.1994,1.96086 0.065,0.44592 0.3004,1.77785 0.5592,3.16815 1.0354,5.5604 3.1049,11.52995 5.8231,16.7968 3.0776,5.96305 6.5406,10.7363 11.2586,15.51835 5.8964,5.97644 12.6479,10.58138 20.2786,13.83121 2.2356,0.9521 4.3256,1.69415 7.0579,2.5059 1.6974,0.50426 2.918,0.81801 4.2433,1.09072 3.2727,0.67344 4.4348,0.83898 8.6474,1.23188 0.7189,0.0671 1.4615,0.13745 1.6503,0.15645 0.4299,0.0433 2.6143,0.051 3.9871,0.0141 z m 0.1848,-28.54461 c 1.4611,-0.0442 2.894,-0.122 3.657,-0.19865 0.4676,-0.047 1.5868,-0.22899 2.3632,-0.38434 5.557,-1.11178 10.2442,-3.23575 14.6848,-6.65437 0.8197,-0.63102 2.4737,-2.01634 2.4592,-2.05971 -0.017,-0.05 -11.4342,-11.40255 -11.4677,-11.40255 -0.042,0 -0.9481,0.80016 -1.5423,1.3623 -2.3801,2.25185 -5.1926,3.62617 -8.5039,4.15546 -1.0295,0.16456 -1.8961,0.22299 -3.0233,0.20382 -1.3984,-0.0238 -2.3973,-0.15249 -3.724,-0.47985 -2.4083,-0.59427 -4.6817,-1.72231 -6.6538,-3.30154 -1.3321,-1.06685 -2.608,-2.44743 -3.5205,-3.80939 -0.8645,-1.29046 -1.9092,-3.30449 -2.338,-4.50749 -0.067,-0.18879 -0.1493,-0.41455 -0.1823,-0.50168 l -0.06,-0.15843 -8.7454,-0.007 c -7.3751,-0.006 -8.7454,-0.001 -8.7454,0.0294 0,0.0934 0.1717,0.97397 0.2654,1.36133 0.3858,1.5939 1.0077,3.59639 1.4855,4.78335 0.5812,1.44394 1.1787,2.67498 1.9773,4.07377 2.2804,3.99457 5.4599,7.59222 9.2364,10.45123 3.2587,2.46702 6.9332,4.35794 10.7731,5.54388 1.7234,0.53228 3.5561,0.94069 5.3092,1.1831 0.8448,0.11681 2.784,0.32416 3.2194,0.34423 0.5084,0.0235 1.7688,0.0123 3.0761,-0.0273 z m 103.334,0.0276 c 1.9825,-0.0327 2.6497,-0.0614 3.4062,-0.14625 5.1175,-0.57409 9.4854,-2.26169 13.0413,-5.03861 1.8676,-1.45857 3.5805,-3.30867 4.9533,-5.35008 2.3481,-3.49186 3.4837,-7.55957 3.7891,-13.57203 0.021,-0.41333 0.1315,-3.46026 0.1319,-3.63722 0,-0.0263 -1.7306,-0.033 -8.5653,-0.033 -7.7862,0 -8.5669,0.004 -8.5815,0.0417 -0.01,0.023 -0.016,0.52499 -0.016,1.1156 0,0.5906 -0.012,1.29364 -0.026,1.5623 -0.184,3.3885 -0.9477,5.97714 -2.2668,7.68371 -0.3416,0.442 -0.9065,0.963 -1.3554,1.25007 -0.3329,0.21291 -1.1245,0.5793 -1.5848,0.73351 -1.0163,0.34048 -2.3764,0.41083 -7.4142,0.38355 -3.777,-0.0204 -4.1283,-0.0413 -4.9977,-0.29634 -1.2942,-0.37965 -2.4595,-1.09489 -3.2879,-2.01798 -1.0419,-1.16111 -1.7849,-2.74885 -2.1969,-4.69486 -0.3029,-1.43035 -0.422,-2.63757 -0.4415,-4.4741 l -0.014,-1.28722 h -8.552 -8.5519 v 1.34003 c 0,2.20421 0.08,3.79647 0.2662,5.35351 0.6446,5.37935 2.3584,9.58493 5.2694,12.93137 0.3572,0.41057 1.3247,1.378 1.7386,1.73832 3.8022,3.3107 7.9936,5.25055 13.0834,6.05529 1.2832,0.20288 2.5239,0.32804 3.5382,0.35692 1.0656,0.0304 6.8312,0.0315 8.6342,0.002 z m -213.2556,-6.01989 1.7466,-4.79241 4.6319,0.008 c 10.0624,0.018 18.6202,0.0543 18.6449,0.079 0.014,0.0139 0.7482,2.14728 1.6319,4.74097 0.8836,2.59371 1.6141,4.72796 1.6233,4.7428 0.022,0.0346 14.5817,0.0355 16.4371,0.001 1.6208,-0.0301 1.9503,-0.062 1.9751,-0.19075 0.011,-0.0545 -1.0427,-2.71766 -8.8634,-22.41192 l -1.5571,-3.92107 h -8.3577 c -6.3186,0 -8.3652,0.007 -8.3885,0.0307 -0.023,0.0234 0.081,0.39675 0.4339,1.55714 0.2554,0.83954 0.4557,1.53502 0.4452,1.54552 -0.029,0.0281 -4.3015,0.0746 -6.858,0.0746 -2.6281,0 -6.9622,-0.047 -6.9911,-0.0757 -0.011,-0.0111 0.074,-0.32834 0.1893,-0.70491 0.5957,-1.94466 0.7178,-2.36973 0.6891,-2.39841 -0.021,-0.0208 -1.9397,-0.0312 -6.8202,-0.0372 -7.9234,-0.01 -9.8261,0.016 -10.0786,0.13593 -0.057,0.0272 -0.3614,0.76719 -2.2656,5.50999 -6.2733,15.62589 -8.2962,20.67592 -8.2962,20.71095 0,0.17807 0.8363,0.19284 10.7581,0.19004 l 7.5235,-0.002 1.7465,-4.79241 z m -2.984,-22.6833 c 1.1651,-0.11423 1.9428,-0.39575 2.7288,-0.98778 0.859,-0.64715 1.5802,-1.67142 1.9429,-2.75982 0.2294,-0.68831 0.2667,-1.04441 0.2444,-2.3368 -0.026,-1.53156 -0.098,-1.93468 -0.4933,-2.77653 -0.6441,-1.37113 -1.689,-2.38217 -2.9442,-2.84837 -1.1039,-0.41007 -2.4431,-0.46121 -3.7758,-0.14418 -1.8525,0.44068 -3.1949,1.59276 -3.8517,3.30567 -0.2874,0.74978 -0.4285,1.4995 -0.4559,2.42381 -0.093,3.11442 1.8041,5.6951 4.4734,6.08654 0.6139,0.09 1.4461,0.10466 2.1314,0.0375 z m -1.3168,-2.26922 c -0.7165,-0.15097 -1.1587,-0.37587 -1.5642,-0.79558 -0.4937,-0.51107 -0.8024,-1.26367 -0.9784,-2.38588 -0.066,-0.41703 -0.065,-1.20488 0,-1.55787 0.109,-0.58485 0.3869,-1.26133 0.6753,-1.64393 0.9156,-1.21523 2.7342,-1.477 4.0346,-0.58075 0.9855,0.67923 1.4948,2.31727 1.2576,4.0448 -0.1467,1.06945 -0.6035,1.95703 -1.2271,2.38449 -0.1783,0.12219 -0.5574,0.30619 -0.829,0.40231 -0.5318,0.18816 -0.9248,0.22616 -1.3697,0.13241 z m 223.1648,2.28244 c 1.0538,-0.1173 1.8978,-0.3856 2.5374,-0.80664 0.2992,-0.197 0.7867,-0.68946 0.99,-1.00024 0.3477,-0.53144 0.5264,-0.97854 0.5924,-1.48207 0.022,-0.16854 0.052,-0.66151 0.067,-1.09547 0.034,-0.98423 0.096,-6.69036 0.081,-7.397 0,-0.0264 -0.2778,-0.0318 -1.3407,-0.0264 l -1.3401,0.007 -0.016,3.67023 c -0.016,3.6972 -0.026,4.10061 -0.1168,4.53094 -0.1305,0.6207 -0.6755,1.14368 -1.3857,1.32982 -0.2651,0.0695 -0.7617,0.0833 -1.0315,0.0287 -0.7883,-0.1596 -1.329,-0.63817 -1.5386,-1.36187 -0.1284,-0.44359 -0.1322,-0.55643 -0.148,-4.5012 l -0.015,-3.69663 h -1.2674 -1.2674 v 3.57781 c 0,3.74311 0.014,4.28118 0.1185,4.98914 0.09,0.60997 0.2415,0.99852 0.598,1.53915 0.2161,0.32786 0.4975,0.6065 0.8514,0.84321 0.6936,0.46396 1.5228,0.75766 2.4713,0.87536 0.2098,0.026 0.8257,0.0134 1.1592,-0.0237 z m -151.8853,-0.0627 c 0.7307,-0.0944 1.3617,-0.25123 1.9495,-0.48462 0.3547,-0.14088 0.5125,-0.24426 0.5238,-0.34334 0.019,-0.16408 -0.3681,-1.48096 -0.5058,-1.72156 -0.074,-0.12997 -0.097,-0.12999 -0.5354,-4.6e-4 -0.5658,0.16722 -0.9957,0.27293 -1.2835,0.31562 -1.1558,0.17146 -2.0403,0.091 -2.763,-0.25121 -0.3557,-0.16847 -0.5499,-0.3095 -0.8234,-0.59822 -0.439,-0.46342 -0.6968,-1.03617 -0.8505,-1.88981 -0.08,-0.44351 -0.085,-1.55084 -0.01,-1.95909 0.3483,-1.88011 1.6164,-2.90889 3.4887,-2.83029 0.4489,0.0188 0.8518,0.0866 1.3598,0.22863 0.5151,0.14401 0.7744,0.20476 0.9638,0.22582 0.1454,0.0162 0.1634,0.0123 0.2183,-0.0464 0.1101,-0.11785 0.3843,-0.87081 0.533,-1.46357 0.076,-0.30441 0.072,-0.36218 -0.032,-0.44026 -0.2437,-0.18314 -1.5027,-0.53386 -2.4358,-0.67854 -1.3516,-0.20957 -2.9836,0.099 -4.2115,0.79629 -0.6955,0.39495 -1.2785,0.92121 -1.6574,1.49624 -0.5026,0.76275 -0.7698,1.45031 -0.9095,2.34083 -0.052,0.32829 -0.058,0.47527 -0.059,1.26905 0,0.91478 0.015,1.15558 0.1193,1.80871 0.1944,1.21884 0.6267,2.12388 1.3392,2.80369 0.888,0.84736 2.1421,1.34101 3.7418,1.47285 0.4431,0.0365 1.3612,0.0114 1.8391,-0.0503 z m 9.7129,0.0505 c 0.512,-0.0358 0.8284,-0.0904 1.1617,-0.20062 1.108,-0.36625 2.0401,-1.2397 2.4915,-2.33463 0.2102,-0.50992 0.2448,-0.90046 0.2821,-3.18034 0.035,-2.1745 0.072,-6.01049 0.057,-6.05359 -0.01,-0.0263 -0.2896,-0.0318 -1.3352,-0.0264 l -1.3239,0.007 -0.018,0.34325 c -0.01,0.1888 -0.031,1.6087 -0.047,3.15534 -0.042,4.07098 -0.081,4.65381 -0.3438,5.17513 -0.1139,0.22545 -0.2702,0.36733 -0.581,0.52694 -0.7358,0.37797 -1.322,0.45538 -1.91,0.25222 -0.5832,-0.20149 -1.078,-0.75634 -1.2335,-1.38325 -0.1069,-0.43036 -0.1121,-0.60749 -0.1282,-4.39941 l -0.016,-3.67022 h -1.2674 -1.2674 v 3.73623 c 0,4.39407 0.015,4.70525 0.2137,5.29949 0.2974,0.88725 0.7182,1.48087 1.3462,1.89893 0.1183,0.0787 0.5282,0.29862 0.911,0.48866 0.5944,0.29514 0.7209,0.34847 0.8675,0.36564 0.2589,0.0304 1.7036,0.0302 2.1388,-3e-4 z m 87.7949,-4.6e-4 c 0.6926,-0.0335 1.4843,-0.11202 1.8582,-0.18418 0.3226,-0.0622 0.9116,-0.25739 1.1335,-0.37552 0.084,-0.0449 0.1782,-0.11674 0.2088,-0.15975 0.075,-0.10515 0.088,-0.28901 0.037,-0.49533 -0.058,-0.23093 -0.5425,-1.56037 -0.5857,-1.60684 -0.029,-0.0317 -0.1017,-0.0132 -0.4914,0.1256 -0.8002,0.28506 -1.2047,0.36267 -2.0808,0.39925 -0.6208,0.0259 -1.1988,-5.2e-4 -1.4629,-0.0673 -0.2049,-0.0517 -0.5843,-0.23649 -0.8533,-0.41565 -0.6189,-0.41218 -0.9998,-1.00564 -1.1692,-1.82182 -0.092,-0.44505 -0.1141,-0.80165 -0.097,-1.60123 0.024,-1.13448 0.089,-1.48687 0.3653,-1.97072 0.5396,-0.94505 1.1457,-1.37995 2.1154,-1.51784 0.1197,-0.017 0.4314,-0.0304 0.6928,-0.0298 0.7951,0.002 1.2218,0.0759 2.1083,0.36574 0.3319,0.10849 0.6278,0.1936 0.6577,0.18915 0.04,-0.006 0.072,-0.0536 0.1193,-0.17973 0.1834,-0.48435 0.6661,-1.83677 0.6661,-1.8665 0,-0.0445 -0.5542,-0.3219 -0.8552,-0.42818 -1.2332,-0.43527 -3.1545,-0.56293 -4.4047,-0.29269 -0.7808,0.16879 -1.6886,0.6058 -2.305,1.10966 -0.2601,0.21264 -0.6868,0.65868 -0.8822,0.92219 -0.4432,0.59778 -0.8129,1.41442 -0.9785,2.16132 -0.2703,1.21945 -0.18,3.27015 0.195,4.43006 0.4832,1.49489 2.0422,2.89677 3.6065,3.24311 0.4008,0.0887 1.3863,0.11622 2.4028,0.067 z m -57.5486,-0.0257 c 0.92,-0.0766 1.427,-0.21492 1.9808,-0.54049 0.6824,-0.40123 1.2564,-0.99486 1.5539,-1.607 0.207,-0.42587 0.321,-0.83092 0.4101,-1.45621 0.1344,-0.94299 0.164,-1.86367 0.1696,-5.26261 l 0.01,-2.89637 h -1.3335 -1.3334 l -0.016,3.591 c -0.019,4.28677 -0.032,4.53129 -0.246,4.96405 -0.4436,0.89537 -1.6494,1.29209 -2.6966,0.88716 -0.4265,-0.1649 -0.7801,-0.47578 -0.9799,-0.8615 -0.2545,-0.4914 -0.2707,-0.64554 -0.2989,-2.83774 -0.013,-0.98026 -0.024,-2.67654 -0.025,-3.76949 v -1.9872 l -1.2608,0.007 -1.2609,0.007 v 3.67022 c 0,3.76199 0.01,4.18848 0.1077,4.87163 0.087,0.60559 0.2513,1.03582 0.5945,1.55563 0.561,0.84959 1.8016,1.53864 2.9942,1.66306 0.3042,0.0317 1.2665,0.033 1.6371,0.002 z m -124.332,-2.09159 0.01,-1.89406 0.059,-0.0124 c 0.033,-0.007 0.392,-0.018 0.7986,-0.0248 0.8113,-0.0136 1.233,-0.0577 1.9233,-0.2013 1.2288,-0.25554 2.1339,-0.65119 2.583,-1.1291 0.505,-0.53747 0.8387,-1.54174 0.8401,-2.52808 0,-1.21551 -0.282,-1.95358 -1.0212,-2.65668 -0.7391,-0.70293 -1.7047,-1.02771 -3.3746,-1.13499 -0.5272,-0.0338 -2.2637,-0.0166 -2.9309,0.0291 -0.3801,0.026 -1.3762,0.14923 -1.4186,0.17546 -0.025,0.0155 -0.028,11.24186 0,11.2669 0.01,0.01 0.5831,0.0148 1.274,0.011 l 1.2562,-0.007 0.01,-1.89406 z m 0.039,-4.18766 c -0.026,-0.0166 -0.032,-0.35773 -0.026,-1.61687 l 0.01,-1.59578 0.8582,3e-4 c 0.5751,0 0.9303,0.0115 1.0772,0.0346 0.9365,0.14723 1.4337,0.51348 1.5635,1.15157 0.044,0.21636 0.037,0.67997 -0.014,0.87316 -0.1565,0.60087 -0.6046,0.93781 -1.4399,1.08273 -0.4172,0.0724 -1.9394,0.12526 -2.0259,0.0704 z m 29.2074,6.05316 c 0.024,-0.0624 0.018,-2.15774 -0.01,-2.19587 -0.016,-0.0258 -0.5651,-0.0343 -2.541,-0.0396 l -2.5202,-0.007 -0.013,-4.64719 -0.013,-4.64719 h -1.3335 -1.3334 l -0.01,5.75622 c -0.01,3.1659 0,5.77103 0.01,5.78918 0.01,0.0262 0.8101,0.033 3.8788,0.033 3.5012,0 3.8678,-0.004 3.8822,-0.0417 z m 4.3728,-5.75427 v -5.79603 l -1.2608,0.007 -1.2609,0.007 -0.01,5.75618 c -0.01,3.1659 0,5.77103 0.01,5.78919 0.01,0.0258 0.2878,0.033 1.2675,0.033 h 1.2551 z m 7.9213,1.13565 0.013,-4.64719 1.7559,-0.0132 1.7559,-0.0132 v -1.12218 -1.12219 l -4.8568,-0.007 c -3.8681,-0.005 -4.8612,0 -4.8779,0.0264 -0.012,0.0182 -0.021,0.51582 -0.022,1.10583 0,0.86625 0.01,1.07842 0.035,1.1022 0.025,0.0208 0.5403,0.0314 1.7625,0.0362 l 1.727,0.007 0.01,4.62078 c 0.01,2.54144 0.012,4.63575 0.019,4.65404 0.01,0.0263 0.2921,0.0318 1.3402,0.0264 l 1.3276,-0.007 z m 7.7733,4.61863 c 0.024,-0.0632 0.018,-11.47877 -0.01,-11.51705 -0.017,-0.0262 -0.3023,-0.0318 -1.3396,-0.0264 l -1.3185,0.007 -0.01,5.75618 c -0.01,3.1659 0,5.77104 0.01,5.78919 0.01,0.0258 0.3005,0.033 1.3308,0.033 1.1777,0 1.32,-0.004 1.3343,-0.0417 z m 11.0135,-1.09363 v -1.12219 l -2.8121,-0.0132 -2.8121,-0.0132 v -1.3202 -1.32022 l 2.2947,-0.007 c 1.642,-0.005 2.3048,-0.0151 2.3302,-0.0362 0.028,-0.0238 0.035,-0.23516 0.035,-1.10224 0,-0.59001 -0.01,-1.08754 -0.021,-1.10561 -0.016,-0.0257 -0.5229,-0.0343 -2.3299,-0.0396 l -2.3089,-0.007 v -1.04298 -1.04298 l 2.6009,-0.0132 2.6008,-0.0132 v -1.12219 -1.12219 h -3.8815 -3.8814 l -0.016,3.64382 c -0.016,3.61202 -0.036,4.69472 -0.1261,6.78596 -0.025,0.59542 -0.041,1.09747 -0.035,1.11567 0.01,0.0264 0.8602,0.0317 4.1872,0.0264 l 4.1757,-0.007 z m 4.5316,-0.76573 c 0.016,-1.78028 0.048,-2.66956 0.1034,-2.8146 0.013,-0.0349 0.041,-0.0635 0.062,-0.0635 0.1598,0 2.1945,2.27691 3.0909,3.45899 0.1487,0.19605 0.4019,0.55345 0.5625,0.79421 0.1607,0.24077 0.312,0.45761 0.3363,0.48188 0.04,0.0398 0.149,0.0441 1.1181,0.0433 1.1406,-5.3e-4 2.0021,-0.032 2.0441,-0.0741 0.014,-0.014 0.018,-0.0499 0.01,-0.0797 -0.025,-0.0784 -0.5894,-0.92704 -0.9809,-1.47456 -1.1181,-1.56387 -1.8138,-2.38695 -3.2051,-3.79224 -0.4432,-0.44755 -0.8057,-0.82987 -0.8057,-0.84961 0,-0.0198 1.0668,-1.19696 2.3707,-2.61605 1.3039,-1.41909 2.3664,-2.59331 2.3611,-2.60938 -0.01,-0.0292 -1.715,-0.0875 -2.6855,-0.0918 l -0.4357,-0.002 -0.2355,0.2567 c -0.5606,0.61087 -1.7842,1.90917 -2.5934,2.75174 -0.9191,0.95695 -1.0882,1.1275 -1.0983,1.10791 -0.01,-0.007 -0.012,-0.93281 -0.02,-2.0583 l -0.014,-2.04635 h -1.2542 -1.2542 l -0.01,5.75618 c -0.01,3.1659 0,5.77115 0.01,5.78944 0.01,0.0263 0.2764,0.0318 1.261,0.0264 l 1.2484,-0.007 0.016,-1.88792 z m 43.5246,0.76573 v -1.12219 l -2.6009,-0.0132 -2.6008,-0.0132 -0.013,-4.6472 -0.013,-4.64719 h -1.3335 -1.3334 l -0.01,5.75621 c -0.01,3.16591 0,5.77108 0.01,5.78928 0.01,0.0264 0.8147,0.0317 3.9542,0.0264 l 3.9417,-0.007 z m 5.5057,-3.492 c 0,-2.54506 0.01,-4.64214 0.021,-4.66019 0.016,-0.0255 0.3961,-0.0343 1.6961,-0.0396 l 1.6753,-0.007 v -1.12215 -1.1222 h -4.7925 -4.7924 v 1.1222 1.12219 l 1.7413,0.007 c 1.3527,0.005 1.7459,0.0141 1.7621,0.0396 0.012,0.018 0.021,2.11514 0.021,4.6602 v 4.62739 h 1.3334 1.3334 v -4.62739 z m 19.645,2.64706 c 0.01,-1.08193 0.016,-1.97011 0.02,-1.97374 0.01,-0.004 0.3139,-0.007 0.69,-0.007 h 0.6838 l 0.4714,0.65336 c 0.5368,0.74396 1.1406,1.64 1.5347,2.27754 0.1482,0.23962 0.35,0.56638 0.4486,0.72613 l 0.1793,0.29045 1.0819,0.007 c 1.1994,0.008 1.5308,-0.0128 1.6019,-0.0997 0.057,-0.0701 0.035,-0.13748 -0.2002,-0.59913 -0.3444,-0.67689 -0.9639,-1.66777 -1.7054,-2.72762 -0.6878,-0.98312 -0.6977,-1.01155 -0.415,-1.19914 0.223,-0.14803 0.7776,-0.62062 0.9784,-0.83381 0.6905,-0.73271 0.9637,-1.77957 0.7662,-2.93472 -0.3089,-1.80604 -1.5521,-2.76463 -3.9574,-3.05147 -0.3264,-0.0389 -0.6028,-0.0471 -1.5711,-0.0462 -0.6747,5.3e-4 -1.3774,0.0153 -1.6503,0.0347 -0.4541,0.0322 -1.424,0.14969 -1.47,0.1781 -0.026,0.0161 -0.03,11.24181 -0.01,11.26777 0.01,0.01 0.5773,0.0148 1.2609,0.011 l 1.2429,-0.007 z m 0.017,-4.29004 c -0.026,-0.0678 -0.02,-2.97912 0.01,-3.02057 0.037,-0.0594 1.6407,-0.0246 2.0121,0.0438 0.9373,0.17246 1.3958,0.55565 1.482,1.23845 0.1,0.79189 -0.2472,1.33861 -1.0103,1.59115 -0.3944,0.13052 -0.6967,0.16396 -1.6125,0.17834 -0.7912,0.0124 -0.8622,0.01 -0.8779,-0.0311 z m 16.7894,5.13498 v -1.12219 l -2.8121,-0.0132 -2.8121,-0.0132 v -1.3202 -1.32022 l 2.3236,-0.0135 c 1.278,-0.007 2.3267,-0.0164 2.3305,-0.0198 0.01,-0.004 0.01,-0.50825 0,-1.12183 l -0.01,-1.11558 -2.3237,-0.0132 -2.3235,-0.0132 v -1.04298 -1.04298 l 2.6008,-0.0132 2.6009,-0.0132 v -1.12219 -1.12219 h -3.8683 -3.8682 l -0.01,5.75618 c -0.01,3.1659 0,5.77107 0.01,5.78927 0.01,0.0264 0.8412,0.0317 4.0862,0.0264 l 4.0737,-0.007 z m 10.1994,0.0528 c 0.01,-0.58816 0,-1.09606 -0.01,-1.12867 l -0.014,-0.0593 -2.8051,-0.007 -2.805,-0.007 -0.01,-1.32668 -0.01,-1.32669 2.3173,-0.007 2.3172,-0.007 v -1.12208 -1.12219 l -2.3104,-0.0132 -2.3104,-0.0132 v -1.04299 -1.04298 l 2.5719,-0.007 c 1.847,-0.005 2.5819,-0.015 2.6074,-0.0362 0.029,-0.0239 0.035,-0.2349 0.035,-1.10225 -3e-4,-0.59002 -0.01,-1.08765 -0.022,-1.10585 -0.017,-0.0263 -0.8118,-0.0317 -3.8877,-0.0264 l -3.8666,0.007 -0.01,5.75618 c -0.01,3.1659 0,5.77107 0.01,5.78927 0.01,0.0263 0.8439,0.0317 4.0995,0.0264 l 4.0869,-0.007 z m 9.6011,1.04082 c 0.024,-0.0624 0.019,-2.15775 -0.01,-2.19588 -0.016,-0.0258 -0.5651,-0.0343 -2.541,-0.0396 l -2.5201,-0.007 -0.013,-4.64719 -0.013,-4.64719 h -1.2674 -1.2674 l -0.01,5.75621 c -0.01,3.1659 0,5.77103 0.01,5.78919 0.01,0.0262 0.7969,0.033 3.8128,0.033 3.441,0 3.8018,-0.004 3.8163,-0.0417 z m 25.0079,-1.09363 v -1.12219 l -2.8121,-0.0132 -2.812,-0.0132 v -1.3202 -1.32022 l 2.3103,-0.0132 2.3104,-0.0132 0.01,-1.12865 0.01,-1.12865 -2.3173,-0.007 -2.3172,-0.007 v -1.04298 -1.04297 l 2.6008,-0.0132 2.6008,-0.0132 v -1.12219 -1.12219 h -3.9474 -3.9475 l -0.01,5.75618 c -0.01,3.1659 0,5.77107 0.01,5.78926 0.01,0.0264 0.8571,0.0317 4.1655,0.0264 l 4.1529,-0.007 z m 4.5128,1.11278 c 0.01,-0.0124 0.026,-1.25708 0.041,-2.76587 0.035,-3.49222 0.054,-4.55197 0.083,-4.55197 0.031,0 0.7857,0.94531 1.2131,1.51826 1.0941,1.46678 2.9321,4.22877 3.5304,5.30505 0.1378,0.24812 0.2626,0.46611 0.2772,0.48441 0.021,0.026 0.2794,0.0318 1.1915,0.0264 l 1.1649,-0.007 v -5.78249 -5.78258 l -1.3186,-0.007 c -0.7253,-0.004 -1.3276,0.002 -1.3384,0.0132 -0.011,0.011 -0.033,1.22607 -0.048,2.7001 -0.032,2.9515 -0.05,3.80225 -0.081,3.80225 -0.012,0 -0.375,-0.49608 -0.808,-1.10239 -1.506,-2.10861 -2.2544,-3.07746 -3.6199,-4.68653 l -0.6225,-0.73357 -1.0855,0.007 -1.0855,0.007 -0.01,5.75618 c -0.01,3.1659 0,5.77103 0.01,5.78918 0.01,0.0258 0.2848,0.033 1.2528,0.033 0.6821,0 1.2465,-0.0102 1.2542,-0.0226 z m 15.2774,-4.63778 0.013,-4.64719 1.6829,-0.007 1.6828,-0.007 0.014,-0.0592 c 0.01,-0.0326 0.011,-0.54044 0.01,-1.1286 l -0.01,-1.06938 -4.7907,-0.007 c -3.8153,-0.005 -4.7952,0 -4.8119,0.0264 -0.012,0.0182 -0.021,0.51581 -0.022,1.10582 0,0.86626 0.01,1.07843 0.035,1.1022 0.025,0.0208 0.5403,0.0314 1.7625,0.0362 l 1.727,0.007 0.01,4.62079 c 0.01,2.54143 0.012,4.63575 0.019,4.65404 0.01,0.0262 0.2921,0.0318 1.3401,0.0264 l 1.3276,-0.007 z m 7.7691,4.65379 c 0.01,-0.004 0.012,-0.89181 0.02,-1.97373 l 0.014,-1.96714 h 0.6835 0.6834 l 0.4009,0.5545 c 0.7211,0.99751 1.1638,1.66008 1.8258,2.73286 l 0.3992,0.64691 1.0797,0.007 c 1.177,0.008 1.5198,-0.013 1.604,-0.0971 0.051,-0.0506 0.051,-0.0551 0.01,-0.17899 -0.1813,-0.49184 -1.0469,-1.9228 -1.8737,-3.09758 -0.471,-0.6692 -0.6227,-0.92554 -0.6227,-1.05217 0,-0.0667 0.022,-0.0955 0.1254,-0.16602 0.4125,-0.28064 1.0311,-0.83977 1.2447,-1.12487 0.4902,-0.65469 0.6964,-1.55679 0.571,-2.49892 -0.1151,-0.86484 -0.4104,-1.50283 -0.9364,-2.02319 -0.7436,-0.7356 -1.8576,-1.12816 -3.5263,-1.24268 -0.526,-0.0361 -2.1125,-0.0201 -2.7989,0.0282 -0.3845,0.0271 -1.3773,0.14965 -1.4186,0.17515 -0.025,0.0154 -0.028,11.24176 -0.01,11.26664 0.016,0.0159 2.5087,0.0267 2.5234,0.011 z m 0.027,-7.75984 0.01,-1.54114 0.8053,3.1e-4 c 1.0571,4.6e-4 1.4757,0.0627 1.9414,0.2887 0.5366,0.2604 0.775,0.68806 0.7443,1.33486 -0.027,0.56578 -0.2499,0.90985 -0.745,1.14932 -0.4724,0.22849 -0.7786,0.27643 -1.8815,0.2946 l -0.8782,0.0145 0.01,-1.54113 z m 22.5331,7.73493 c 0.011,-0.0173 0.035,-0.45994 0.053,-0.98357 0.1322,-3.72296 0.2061,-5.19246 0.2968,-5.90594 0.044,-0.34313 0.063,-0.42131 0.096,-0.38812 0.01,0.008 0.5673,1.32545 1.244,2.9287 0.6766,1.60325 1.2438,2.92933 1.2603,2.94686 0.023,0.0249 0.2415,0.023 0.9937,-0.008 0.5302,-0.0221 0.9711,-0.0483 0.9799,-0.0583 0.01,-0.01 0.4532,-1.03987 0.9875,-2.28881 0.9222,-2.15578 1.4678,-3.40428 1.503,-3.43951 0.042,-0.0419 0.068,0.065 0.105,0.4294 0.082,0.80925 0.1642,2.31894 0.2672,4.91242 0.039,0.97236 0.081,1.79465 0.094,1.82733 l 0.023,0.0594 h 1.3061 c 0.7744,0 1.3121,-0.01 1.3211,-0.0245 0.023,-0.0371 -0.4568,-6.85069 -0.5941,-8.43815 -0.084,-0.97455 -0.2837,-2.78164 -0.3299,-2.99031 l -0.013,-0.0594 h -1.2754 -1.2754 l -0.4515,0.91756 c -0.4386,0.89159 -0.6863,1.42331 -1.3013,2.79228 -0.3935,0.87593 -0.9037,2.04843 -1.0341,2.3764 -0.1536,0.38653 -0.18,0.43568 -0.2339,0.43568 -0.1,0 -0.1845,-0.16978 -0.8793,-1.75811 -0.7978,-1.82376 -1.6117,-3.60474 -2.0444,-4.47336 l -0.1776,-0.35645 -1.0562,-0.007 c -1.1227,-0.008 -1.4595,0.0127 -1.571,0.0957 -0.056,0.0415 -0.069,0.0795 -0.086,0.24442 -0.011,0.1074 -0.061,0.56362 -0.1119,1.01381 -0.1279,1.13853 -0.16,1.48568 -0.3022,3.26096 -0.2143,2.67467 -0.4793,6.83088 -0.4418,6.92864 0.015,0.0378 0.1506,0.0422 1.3225,0.0422 0.9836,0 1.311,-0.008 1.3257,-0.0315 z m -170.3381,-3.41549 c 0.1823,-0.0499 0.3517,-0.16832 0.6093,-0.4259 0.4162,-0.41623 0.4728,-0.54684 0.4728,-1.09108 0,-0.37609 0,-0.38603 -0.085,-0.56153 -0.064,-0.13508 -0.1503,-0.24612 -0.3536,-0.45513 -0.4359,-0.44798 -0.5834,-0.5148 -1.1363,-0.5148 -0.375,0 -0.5584,0.0298 -0.7375,0.11999 -0.2662,0.13407 -0.6655,0.50785 -0.7621,0.71349 -0.1142,0.24286 -0.13,1.12789 -0.025,1.37363 0.106,0.2472 0.4857,0.60977 0.8026,0.76647 0.1447,0.0716 0.2355,0.0967 0.4093,0.11326 0.2766,0.0264 0.6294,0.01 0.8047,-0.0384 z m -80.553,-0.0401 c 0.2619,-0.07 0.4892,-0.17794 0.6812,-0.32341 0.2962,-0.22436 0.3762,-0.41914 0.3997,-0.97269 0.022,-0.5266 -0.054,-0.90964 -0.2279,-1.15025 -0.2424,-0.33456 -1.0348,-0.60023 -1.5276,-0.51215 -0.2651,0.0474 -0.4833,0.15968 -0.6833,0.35177 -0.2947,0.28296 -0.4662,0.64879 -0.4995,1.06539 -0.034,0.42412 0.1025,0.79831 0.4116,1.12922 0.4246,0.45464 0.8419,0.57361 1.4458,0.41212 z m 178.7314,-0.0307 c 0.4328,-0.14819 0.7068,-0.34499 0.913,-0.65589 0.1677,-0.25298 0.2123,-0.41632 0.2122,-0.77714 0,-0.28108 -0.01,-0.33735 -0.071,-0.49844 -0.1863,-0.47655 -0.5813,-0.81254 -1.127,-0.95877 -0.2528,-0.0677 -0.6506,-0.0608 -0.8684,0.0151 -0.5721,0.19956 -0.9815,0.73428 -1.0233,1.33645 -0.035,0.51279 0.2097,1.05666 0.6111,1.35502 0.4205,0.31258 0.8191,0.36665 1.3536,0.18362 z m 86.0056,0.0543 c 0.1791,-0.0346 0.4916,-0.15657 0.6386,-0.24935 0.1511,-0.0954 0.3609,-0.29564 0.4108,-0.39219 0.1581,-0.30545 0.1815,-1.08243 0.046,-1.53741 -0.06,-0.2019 -0.1811,-0.36069 -0.3773,-0.49429 -0.353,-0.24036 -0.9074,-0.37445 -1.2877,-0.31143 -0.7689,0.12741 -1.3148,0.96272 -1.1741,1.79663 0.046,0.27152 0.1804,0.52551 0.4024,0.75926 0.4069,0.42832 0.7593,0.541 1.341,0.42878 z m -230.0262,-9.38883 c 0.022,-0.069 0.244,-0.81458 0.4929,-1.65688 0.7562,-2.55896 1.1716,-3.78905 1.2797,-3.78905 0.06,0 0.2548,0.50448 0.5923,1.53561 0.1962,0.59963 0.3534,1.10927 0.8942,2.90035 l 0.3388,1.12219 7.7071,0.007 c 4.2389,0.004 7.7158,-0.002 7.7265,-0.0132 0.011,-0.0109 -0.521,-1.38034 -1.1816,-3.04316 -2.6766,-6.738 -7.8782,-19.82732 -8.5701,-21.56587 l -0.7381,-1.85492 h -6.7553 -6.7552 l -0.079,0.19144 c -0.2902,0.70444 -9.1396,22.7953 -9.8784,24.65968 -0.2916,0.73584 -0.5302,1.36917 -0.5302,1.40738 0,0.13234 0.1901,0.16896 1.0298,0.1984 0.2831,0.01 3.6359,0.02 7.4505,0.0224 l 6.9357,0.004 z m 50.4747,0.0621 c 0.013,-0.0348 0.1025,-0.47148 0.1983,-0.97037 0.3886,-2.02281 0.5555,-2.8005 0.8092,-3.77195 1.1316,-4.33258 2.8677,-8.53751 5.0529,-12.23848 4.2562,-7.20854 10.2577,-13.11676 17.4274,-17.15625 1.5091,-0.85024 3.2954,-1.72671 4.8584,-2.38386 2.2686,-0.95379 4.7276,-1.76494 7.1688,-2.36488 2.2567,-0.55455 4.9545,-1.01052 6.9312,-1.17146 2.5154,-0.2048 7.0354,-0.17859 9.2416,0.0536 4.6328,0.48755 9.4625,1.75177 13.8053,3.61368 1.0544,0.45205 2.532,1.15976 3.5353,1.69326 5.3319,2.83504 10.0418,6.65178 13.9113,11.27323 3.0272,3.61542 5.4679,7.62442 7.3783,12.11966 0.9046,2.12854 1.7203,4.55091 2.2671,6.73315 0.2371,0.94616 0.3505,1.4835 0.769,3.64381 0.096,0.49377 0.1801,0.91855 0.1877,0.94396 0.013,0.0439 0.4208,0.0462 8.0787,0.0462 h 8.0648 v -0.0858 c 0,-0.12134 -0.1452,-1.36102 -0.21,-1.79863 -0.1315,-0.88791 -0.6185,-3.52711 -0.8362,-4.53185 -1.249,-5.76471 -3.3893,-11.48863 -6.2743,-16.78006 -3.1135,-5.70985 -6.621,-10.31749 -11.4675,-15.0638 -6.0033,-5.87925 -13.0296,-10.42663 -20.9512,-13.55955 -2.4237,-0.95858 -6.0038,-2.08366 -8.5942,-2.70087 -0.5767,-0.13739 -3.1933,-0.65794 -4.0004,-0.79582 -6.5594,-1.12064 -14.6182,-1.12135 -21.1367,-0.002 -1.0047,0.17254 -3.2776,0.62391 -4.0663,0.80752 -1.5963,0.37158 -4.6983,1.29616 -6.639,1.9788 -2.9879,1.051 -6.1363,2.45686 -9.0057,4.02135 -6.0924,3.32178 -11.4876,7.54839 -16.3721,12.82586 -4.0804,4.40858 -7.2763,9.04933 -10.0448,14.58577 -1.3388,2.6772 -2.4247,5.30648 -3.4086,8.25315 -0.8355,2.50225 -1.4549,4.80208 -1.9237,7.14241 -0.158,0.78899 -0.6302,3.42434 -0.7006,3.91059 -0.075,0.51739 -0.2105,1.74821 -0.1952,1.77298 0.01,0.0109 3.6358,0.0198 8.0646,0.0198 h 8.0525 l 0.024,-0.0633 z m 135.6557,0.0292 c 0.02,-0.0528 -0.06,-26.4242 -0.08,-26.44469 -0.022,-0.0217 -16.9237,-0.0956 -16.9793,-0.0742 -0.034,0.0131 -0.039,1.63483 -0.039,13.26637 0,7.28832 0.01,13.25941 0.017,13.26909 0.01,0.01 3.8539,0.0176 8.5428,0.0176 6.949,0 8.5274,-0.006 8.5381,-0.0342 z m 40.6943,-13.24071 -0.01,-13.27486 -8.5271,-0.007 c -6.8043,-0.005 -8.5313,0 -8.5481,0.0264 -0.024,0.0381 -0.03,26.42517 -0.01,26.48819 0.015,0.0379 0.793,0.0418 8.5551,0.0418 h 8.5391 z m -146.5179,13.18652 c 0.019,-0.0191 0.1719,-0.37237 0.3396,-0.78511 0.7565,-1.86171 1.1687,-2.66155 2.053,-3.98271 0.8032,-1.20014 1.4737,-2.01707 2.4215,-2.94991 0.6654,-0.65497 1.1091,-1.03948 1.7674,-1.53158 2.2137,-1.65491 4.6983,-2.71279 7.4028,-3.1519 1.009,-0.16382 1.4477,-0.19586 2.6961,-0.19688 1.186,-0.001 1.4384,0.0148 2.3251,0.14466 2.3722,0.34761 4.732,1.28576 7.0221,2.79169 1.0774,0.70849 1.7145,1.19669 3.1863,2.44158 0.46,0.38906 0.8486,0.70738 0.8637,0.70738 0.015,0 2.5773,-2.53236 5.6939,-5.62745 l 5.6664,-5.62745 -0.2459,-0.25199 c -1.1862,-1.21575 -3.0632,-2.74414 -4.7706,-3.88463 -1.3028,-0.8702 -2.3342,-1.46842 -3.753,-2.1768 -4.116,-2.05488 -8.2803,-3.14429 -13.3343,-3.48832 -1.939,-0.13198 -4.2999,-0.1168 -6.0863,0.0392 -5.2405,0.45752 -10.3911,2.1895 -15.0109,5.04771 -1.7871,1.10563 -3.4787,2.38033 -5.1225,3.85997 -0.5133,0.46203 -1.9875,1.93703 -2.4444,2.44578 -1.2782,1.42306 -2.2906,2.73149 -3.2994,4.2643 -2.3004,3.49534 -3.8989,7.27413 -4.8296,11.41689 -0.081,0.35906 -0.085,0.44342 -0.022,0.46178 0.283,0.0821 1.4485,0.0919 9.591,0.08 6.4399,-0.009 7.861,-0.0177 7.8894,-0.0462 z"
         id="path29"
         inkscape:connector-curvature="0" />
    </g>
  </g>
</svg>