<?xml version="1.0" encoding="utf-8"?>
<!-- Generator: Adobe Illustrator 24.1.0, SVG Export Plug-In . SVG Version: 6.00 Build 0)  -->
<svg version="1.1" id="Laag_1" xmlns="http://www.w3.org/2000/svg" xmlns:xlink="http://www.w3.org/1999/xlink" x="0px" y="0px"
	 viewBox="0 0 650 650" style="enable-background:new 0 0 650 650;" xml:space="preserve">
<style type="text/css">
	.st0{fill:#1A171B;}
</style>
<path class="st0" d="M231,225.7h-32.2v-37.5H231V225.7z M564,236.3H381.3v-6.1l-2,0.4l-1.8-8.7l-8,5.9l-19.1-25.9l102-75.2
	l19.1,25.9l-49.1,36.3l106.2-22l6.5,31.5l-27.3,5.6H564L564,236.3L564,236.3z M542.6,341.1v53.4c5.5-17.3,9-35.2,10.2-53.4H542.6z
	 M97.2,341.1c1.3,18.1,4.7,36.1,10.2,53.4v-53.4L97.2,341.1L97.2,341.1z M462,341.1v166.5c18.5-13.9,34.8-30.5,48.3-49.3V341.1H462z
	 M139.7,458.3c13.5,18.8,29.8,35.4,48.3,49.3V341.1h-48.3V458.3z M220.2,527.9c15.4,8,31.7,14.2,48.5,18.5V341.1h-48.5V527.9z
	 M381.3,341.1v205.2c16.8-4.3,33.1-10.5,48.5-18.5V341.1L381.3,341.1L381.3,341.1z M300.9,552.1c15.8,1.7,32.3,1.7,48.1,0v-211
	h-48.1V552.1L300.9,552.1z M325,585.6C181.3,585.6,64.4,468.7,64.4,325v-16.1h521.1V325C585.6,468.7,468.7,585.6,325,585.6
	L325,585.6z M161.9,205.4c8.2,30.5,35.8,49.8,61.6,42.8c12.1-3.2,22.1-11.8,28.2-24.2c6.4-13,7.8-28.6,3.7-43.7
	c-1.3-5-3.3-9.9-5.7-14.5l-71.6-20.2C162.7,158.3,155.6,181.8,161.9,205.4L161.9,205.4z M110,126.4c-48.3,52.2-77.8,122-77.8,198.6
	c0,161.4,131.3,292.8,292.8,292.8c161.4,0,292.8-131.3,292.8-292.8c0-161.4-131.3-292.8-292.8-292.8c-71.4,0-137,25.7-187.9,68.4
	l36.2,10.2c3.9-1.8,8-3.3,12.2-4.5c31.5-8.4,64.2,5.1,84.5,31.7l46.1,13l-8.7,31l-19.7-5.5c4.7,21.3,2.2,43.1-7,61.8
	c-10.3,20.8-27.6,35.3-48.8,41c-42.9,11.5-88.3-17.9-101.1-65.6c-7.6-28.4-2-56.9,12.8-77.8L110,126.4L110,126.4z M325,650
	C145.8,650,0,504.2,0,325c0-79.2,28.5-151.8,75.7-208.3l-15.6-4.4l8.7-31l31.6,8.9C158.8,34.4,238,0,325,0
	c179.2,0,325,145.8,325,325C650,504.2,504.2,650,325,650"/>
</svg>
