<svg xmlns="http://www.w3.org/2000/svg" width="552.265" height="244.31" viewBox="0 0 552.26465 244.31017"><path d="M261.41 244.024c-9.172-.953-16.453-2.496-24.16-5.117-6-2.035-18.449-7.805-21.949-10.168-1.153-.776-2.199-1.414-2.32-1.414-.407 0-9.696-6.383-10.743-7.383-.566-.54-1.168-.977-1.336-.977-.519 0-8.058-6.47-12.445-10.68-2.269-2.176-5.977-6.148-8.242-8.832-2.266-2.68-4.465-5.273-4.89-5.762-1.954-2.233-5.653-7.762-5.927-8.854-.168-.665-1.94-4.911-3.945-9.438-2.004-4.527-3.91-9.062-4.234-10.086-.324-1.022-1.168-2.383-1.875-3.022-1.16-1.052-1.223-1.26-.633-2.063 1.023-1.402.79-2.43-1.012-4.422-2.023-2.238-2.648-4.484-3.699-13.254-.945-7.882-.71-23.734.465-31.355 2.172-14.098 6.18-27.66 12.7-42.97 1.925-4.525 3.116-6.64 4.753-8.44 1.203-1.323 3.195-3.831 4.43-5.573 1.234-1.747 2.652-3.536 3.152-3.985.5-.444.75-.812.551-.812-1.578 0 16.898-18.481 23.27-23.267C221.183 12.72 244.698 3.999 272.64.439c4.61-.586 6.097-.586 11.843.008 29.277 3.027 50.934 10.505 65.102 22.466a494.692 494.692 0 0 0 6.04 5.004c7.64 6.229 15.39 15.574 23.91 28.832 4.452 6.933 9.82 17.405 9.933 19.386.035.633.207 1.153.375 1.153.91 0 5.043 15.39 6.441 23.976 1.211 7.45 1.691 19.899.973 25.246-.449 3.329-.426 4.032.152 4.609.602.598.56.742-.344 1.195-.926.46-1.035.883-1.078 4.246-.086 6.297-.516 8.352-4.109 19.793-1.184 3.758-2.457 8.43-2.828 10.383-.594 3.109-.94 3.844-2.766 5.87-3.008 3.349-6.055 8.474-7.262 12.216-1.148 3.562-4.07 7.934-9.453 14.133-3.367 3.875-12.96 13.246-16.5 16.113-4.266 3.457-12.25 9.008-12.957 9.008-.28 0-.516.156-.516.348-.004.19-.684.738-1.512 1.219-17.16 9.899-31.555 15-50.047 17.727-5.91.873-20.992 1.244-26.628.654zm22.68-33.402c7.206-1.125 15.085-2.855 18.976-4.172 4.29-1.453 12.992-5.86 17.637-8.926 1.488-.98 2.832-1.785 2.992-1.785.16 0 1.766-1.523 3.566-3.383 1.805-1.863 4.012-3.926 4.906-4.59 2.434-1.804 6.117-5.438 8.168-8.054 1-1.278 1.973-2.392 2.168-2.478.191-.086.348-.315.348-.516 0-.445 6.867-11.781 9.387-15.496 2.422-3.566 2.934-4.933 3.594-9.547.305-2.136.738-4.332.961-4.88.223-.545.54-2.405.7-4.127.214-2.263.48-3.138.956-3.138.496 0 .66-.684.66-2.75 0-1.512.125-3.078.281-3.484.203-.523.004-.734-.695-.734-1.215 0-1.21-.094.031-3.5.867-2.363 1.012-3.723 1-9.272-.012-4.153-.27-7.547-.715-9.392-.5-2.055-.55-2.948-.184-3.104.312-.133.16-.504-.395-.95-.82-.66-.836-.8-.19-1.445 1.741-1.746-1.786-12.516-9.044-27.612-3.379-7.032-6.594-11.364-12.922-17.418-3.773-3.61-7.777-7.2-8.027-7.2-.066 0-1.879-1.184-4.023-2.624-7.172-4.825-17.34-9.293-26.898-11.825-8.246-2.18-22.55-3.45-30.195-2.672-16.863 1.71-35.102 9.879-49.195 22.028-6.149 5.304-14.676 16.543-19.008 25.054-2.282 4.485-3.344 7.14-5.707 14.258-1.875 5.64-2.14 7.285-1.32 8.106.335.336.265.664-.235 1.077-1.02.849-.89 1.267.5 1.613 1.13.285 1.16.36.465 1.133-.414.453-.75 1.367-.75 2.027 0 .664-.223 1.278-.492 1.368-.344.113-.352.546-.024 1.402.317.836.317 1.288 0 1.394-.32.106-.32.559 0 1.395.324.855.317 1.285-.027 1.398-.27.094-.778 2.563-1.12 5.493-.868 7.354-.88 7.207.73 7.875 1.452.6 1.472 1.394.034 1.394-1.07 0-1.425 1.668-1.425 6.699 0 4.566 1.308 9.438 4.644 17.309 1.258 2.974 2.18 5.582 2.047 5.797-.133.216-.043.39.203.39s1.035 1.622 1.754 3.599c3.652 10.05 17.047 24.676 29.926 32.676 10.828 6.727 22.176 10.427 36.68 11.957 4.832.507 14.877.316 19.276-.368zm-5.81-17.98c-1.402-.078-7.988-.785-14.633-1.574-8.683-1.026-12.664-1.695-14.164-2.367-6.632-2.977-18.26-12.81-23.246-19.655-3.258-4.474-6.707-10.603-8.363-14.864-.848-2.18-1.797-3.965-2.109-3.965-.313 0-1.004-.742-1.539-1.648-.895-1.516-.915-1.73-.25-2.746.664-1.012.656-1.141-.118-1.57-.699-.391-.882-1.281-1.089-5.203-.23-4.457-.32-4.793-1.54-5.844-1.109-.957-1.199-1.202-.636-1.766.812-.812 1.367-7.27.828-9.655-.262-1.164-.223-1.774.13-1.892.343-.113.253-.578-.267-1.371-.66-1.004-.683-1.285-.156-1.723.711-.593.437-2.347-.37-2.355-.29-.004-.005-.272.632-.594.961-.484 1.211-1.027 1.437-3.13.152-1.397.754-3.585 1.344-4.862.777-1.694 1.09-3.297 1.156-5.93.074-2.906.277-3.804 1.047-4.644.523-.57 1.523-2.192 2.22-3.595.694-1.405 1.757-3.215 2.358-4.02.961-1.281 1.012-1.535.402-2.04-.617-.51-.609-.674.071-1.424.418-.465.636-1.177.48-1.582-.203-.524.145-.918 1.18-1.356.805-.34 2.348-1.793 3.426-3.238 2.54-3.391 7.722-9.18 7.984-8.913.113.112.84-.4 1.61-1.142.773-.738 1.8-1.47 2.281-1.621 1.023-.324 1.097-.723.297-1.565-.473-.496-.399-.556.418-.31.742.224 1.246-.015 1.964-.933.536-.676.856-1.415.72-1.642-.14-.227.37-.41 1.132-.41 1 0 1.88-.508 3.16-1.82l1.777-1.824 11.848-2.332c14.613-2.88 22.277-3.68 28.082-2.93 2.277.293 4.258.696 4.402.89.43.587 3.29 1.4 7 2 1.941.314 3.973.946 4.59 1.432.773.604 1.871.87 3.63.87 2.39 0 2.612.105 4.41 2.078 2.132 2.345 5.89 4.422 8.015 4.43 1.062.009 1.246.117.73.445-.742.47-.91.254 4.52 5.902 1.344 1.395 2.438 2.817 2.438 3.16 0 .348.172.7.38.786 1.39.573 6.292 9.847 8.171 15.46 1.25 3.743 2.598 10.415 2.598 12.855 0 1.149-.176 1.332-1.289 1.332-.707 0-8.738.317-17.844.703-10.66.449-16.965.543-17.707.262-1.832-.698-2.64-2.272-2.64-5.133 0-3.526-.649-5.476-2.435-7.34-5.234-5.465-13.605-7.957-22.503-6.7-2.984.423-3.715.75-6.965 3.126-4.69 3.426-8.805 7.414-9.969 9.664-.683 1.317-.894 2.524-.808 4.646.09 2.203-.12 3.319-.906 4.828-1.094 2.108-1.164 2.694-.825 6.629.137 1.593-.043 3.386-.484 4.76-.578 1.81-.609 2.79-.19 5.489.374 2.427.37 3.798-.02 5.23-.32 1.184-.415 3.395-.239 5.656.398 5.137.816 6.473 2.094 6.656.777.113.964.355.722.93-.797 1.887-.734 3.075.278 5.238.714 1.527 1.437 2.39 2.156 2.57.594.148 1.668 1.137 2.386 2.19 1.016 1.494 1.58 1.908 2.508 1.845.813-.055 1.27.192 1.418.766.352 1.34 2.211 2.273 5.461 2.746 1.653.238 3.367.582 3.817.758.625.25.812.087.812-.711 0-.82.133-.926.63-.516.351.293 1.25.402 2.022.246 1.066-.211 1.47-.086 1.707.53.285.748.398.728 1.398-.21.93-.871 1.133-.917 1.367-.301.535 1.39 2.883.809 6.508-1.616 4.258-2.845 5.516-4.286 6.777-7.76.535-1.472 1.297-3.554 1.691-4.624.902-2.461 2.227-4.148 3.938-5.034 1.188-.614 3.215-.606 17.957.062 15.168.684 16.703.828 17.551 1.64.852.817.93 1.5.93 7.967v7.065l-3.688 5.556c-6.898 10.386-17.445 19.983-27.473 24.995-7.675 3.833-19.28 6.114-28.53 5.607zm-262.448-7.61c-8.559-.172-15.613-.34-15.68-.375-.422-.237.063-3.273 1.09-6.82 1.313-4.535 2.028-6.238 6.438-15.312 1.613-3.32 3.593-8.336 4.398-11.147 2.484-8.646 5.504-17.052 11.52-32.051 3.18-7.918 6.05-15.028 6.382-15.793.332-.767 1.286-3.274 2.118-5.574.832-2.301 2.61-6.688 3.95-9.754 4.401-10.086 8.12-20.696 8.12-23.185 0-.465.855-.957 2.437-1.401 5.352-1.513 8.38-1.724 22.618-1.574l14.257.144 1.106 3.484c.61 1.918 1.25 3.696 1.422 3.95.172.257.984 2.66 1.804 5.343 2.458 8.032 9.047 26.922 10.891 31.223.406.949.742 2.457.742 3.349 0 1.522.782 3.933 1.442 4.448 1.078.836 2.27 3.738 2.27 5.535.003 1.129.284 2.388.632 2.789.348.403.844 1.57 1.106 2.59.261 1.023 1.046 3.738 1.742 6.039a436.39 436.39 0 0 1 1.652 5.574c.214.765 1.117 3.69 2.004 6.504 6.172 19.547 12.375 39.766 12.375 40.336 0 1.274-7.113 1.938-20.438 1.91-6.769-.016-13.093-.184-14.05-.371-2.37-.47-3.11-2.062-3.82-8.273-.469-4.055-.817-5.383-1.813-6.887l-1.235-1.863-8.238.009c-4.53 0-13.558.218-20.062.476-13.18.527-12.567.356-14.707 4.117-.985 1.734-1.258 2.934-1.453 6.39-.16 2.864-.41 4.196-.758 4.067-.289-.11-.879.434-1.313 1.2-.613 1.077-1.086 1.375-2.09 1.304-.714-.05-8.3-.23-16.859-.401zm49.815-42.804l5.454-.57.277-1.477c.152-.812.043-1.918-.246-2.457-.285-.54-.379-.977-.203-.977.18 0-.008-.367-.407-.816-.402-.445-.875-1.648-1.054-2.668-.39-2.25-1.39-3.95-2.32-3.95-1.07 0-.805-.725.484-1.311l1.168-.532-.938-.938c-.71-.711-.937-1.547-.937-3.487 0-1.965-.16-2.56-.696-2.56-.382 0-.695-.391-.695-.866 0-.642-.453-.942-1.742-1.156-3.516-.58-3.367-.747-3.367 3.897 0 3.316-.149 4.25-.703 4.465-.387.148-1.016.013-1.395-.305-.945-.785-.945.363-.004 1.71.637.91.598 1.044-.492 1.763-.883.578-1.062.927-.695 1.367.367.445.215.719-.606 1.094-.75.344-1.48 1.492-2.312 3.645-1.16 2.996-1.176 3.184-.407 4.05.954 1.075 4.133 2.61 5.45 2.63.511.007 3.386-.238 6.386-.551zm-.14-27.051c.406-.488.418-.922.058-1.597-.273-.513-.496-1.457-.496-2.103 0-.68-.375-1.375-.882-1.647-1.07-.575-1.23-.254-1.684 3.386l-.328 2.625h1.39c.763 0 1.638-.3 1.942-.664zm416.234 69.586c-.64-.093-3.043-.402-5.344-.688-10.69-1.32-20.03-4.948-27.82-10.812-2.816-2.121-3.48-2.867-3.73-4.215-.172-.902-1.559-4.07-3.082-7.043-1.527-2.973-3.008-6.316-3.289-7.434-.293-1.172-.78-2.03-1.152-2.03-.352 0-.652-.474-.668-1.048-.016-.573-.074-6.582-.133-13.355-.09-11.04-.199-12.602-1.059-15.133l-.957-2.824.973-.43c.7-.31.922-.75.793-1.585-.293-1.892.012-14.903.406-17.414.312-1.99.242-2.4-.512-2.931-1.156-.81-1.109-1.312.281-2.97l1.164-1.378.06-10.765c.03-5.918.187-13.06.347-15.86l.29-5.101 3.042-1.263c5.773-2.397 12.863-2.827 24.598-1.487 7.164.815 7.652 1.01 9.348 3.754.922 1.488.926 1.604.16 2.776-.672 1.02-.762 1.962-.555 5.68.133 2.45-.05 14.8-.41 27.445-.676 23.879-.535 31.648.59 32.582.543.449.527.664-.109 1.363-.637.707-.727 1.867-.586 7.715.152 6.383.262 7.09 1.473 9.728.723 1.565 1.766 3.069 2.32 3.343 1.422.7 5.215 1.543 8.121 1.809 2.078.188 2.555.41 3 1.396.496 1.085.7 1.147 2.875.886 1.285-.156 2.81-.285 3.383-.285.734-.004 1.047-.281 1.047-.934 0-.512.29-.93.645-.93.356 0 .617.367.582.812-.109 1.383 2.176 1.242 5.137-.316 1.48-.78 2.938-1.422 3.23-1.422.297 0 1.414-1.047 2.484-2.324s1.836-2.323 1.7-2.323c-.134 0 .253-1.22.862-2.716 1.328-3.273 1.86-8.586 1.238-12.383-.324-1.996-.305-2.97.07-3.43.598-.73.484-9.363-.16-12.332-.262-1.187-.223-2.16.11-2.776.308-.578.546-4.656.608-10.42.06-5.64.285-9.59.562-9.765.277-.18.63-7.136.887-17.57.477-19.28.367-18.72 3.832-19.637 1.77-.465 17.043-1.156 24.977-1.13 4.227.017 4.902.138 6.387 1.147 2.36 1.604 2.762 3.237 2.383 9.668-.172 2.969-.504 18.46-.738 34.43-.426 29.578-.648 33.987-2.328 46.159-.773 5.609-1.223 7.445-2.387 9.755-4.75 9.405-13.125 18.022-19.934 20.5-9.996 3.636-35.969 6.815-45.012 5.51zm0 0" fill="#fff"/></svg>