<svg xmlns="http://www.w3.org/2000/svg" width="650" height="650" viewBox="0 0 650 650"><path fill="#FFF" d="M231.006 225.7H198.79v-37.522h32.216V225.7zm332.96 10.611H381.283v-6.061l-2.042.422-1.805-8.718-8.002 5.905-19.13-25.923 101.952-75.232 19.128 25.922-49.125 36.251 106.226-21.97 6.527 31.549-27.271 5.64h56.225v32.215zm-21.413 104.797v53.357a227.06 227.06 0 0 0 10.237-53.357h-10.237zm-445.344 0a226.878 226.878 0 0 0 10.24 53.364v-53.364H97.21zm364.804 0v166.466a230.322 230.322 0 0 0 48.323-49.312V341.108h-48.323zM139.665 458.263a230.199 230.199 0 0 0 48.325 49.311V341.108h-48.325v117.155zm80.54 69.593a226.712 226.712 0 0 0 48.512 18.478V341.108h-48.512v186.748zm161.077-186.748v205.225a226.84 226.84 0 0 0 48.516-18.477V341.108h-48.516zm-80.348 210.987c15.818 1.663 32.314 1.663 48.132 0V341.108h-48.132v210.987zM325 585.569C181.321 585.57 64.432 468.678 64.432 325v-16.107h521.136V325c0 143.678-116.89 260.57-260.568 260.57zM161.94 205.366c8.179 30.533 35.817 49.75 61.604 42.84 12.11-3.244 22.136-11.825 28.235-24.164 6.449-13.041 7.76-28.573 3.697-43.738a67.077 67.077 0 0 0-5.731-14.474l-71.646-20.205c-15.394 12.694-22.47 36.197-16.16 59.741zm-51.913-78.935C61.757 178.652 32.216 248.446 32.216 325c0 161.44 131.342 292.785 292.784 292.785 161.44 0 292.785-131.345 292.785-292.785C617.785 163.558 486.44 32.216 325 32.216c-71.439 0-136.989 25.722-187.868 68.385l36.195 10.207a73.166 73.166 0 0 1 12.204-4.464c31.475-8.437 64.232 5.122 84.518 31.738l46.057 12.988-8.744 31.007-19.656-5.542c4.663 21.295 2.207 43.063-7.047 61.785-10.267 20.765-27.589 35.326-48.776 41.003-42.95 11.51-88.283-17.928-101.062-65.62-7.601-28.367-1.997-56.902 12.833-77.79l-33.627-9.482zM325 650C145.794 650 0 504.205 0 325c0-79.168 28.457-151.82 75.675-208.257L60.06 112.34l8.744-31.008 31.647 8.924C158.846 34.37 237.979 0 325 0c179.205 0 325 145.794 325 325 0 179.205-145.795 325-325 325"/></svg>