<svg xmlns="http://www.w3.org/2000/svg" xmlns:xlink="http://www.w3.org/1999/xlink" viewBox="0 0 133.2 51.8" xmlns:v="https://vecta.io/nano"><path d="M-.006 22.235L128.083.005l5.13 29.56-128.09 22.23z" fill="#fff"/><path d="M23.1 29.4c-.5.7-.8 1.8-.9 3.2l-.5 3.3c.1.1.3.1.5 0 .5-.1.9-.5.8-.9a2.2 2.2 0 0 0 1.4.2c.2 0 .8-.2 1.7-.5.2.2.4.6.7.4-.4-.7-.9-1.8-1.7-3.6-.7-1.6-1.3-2.7-1.8-3.5l-.2 1.4zm.3 1.3c.1-.5.1-.9.2-1.1 0 .1.3.5.3.6 0 .2-.2.4-.5.5zm90.5-28.2h0L99.6 4.9h-.1L85.4 7.4h-.1L71.2 9.9h-.1L57 12.3h-.1l-14.2 2.5h-.1l-14.2 2.5h-.1l-14.2 2.5H14L0 22.2l5.1 29.6 14.2-2.5h.1l14.2-2.5h.1l14.2-2.5h.1l14-2.4h.1l14.2-2.5h.1L90.5 37h.1l14.2-2.5h.1l14.2-2.5h.1l14.2-2.5L128.1 0l-14.2 2.5zm-98.1 38c-.2.7-.7 1.2-1.5 1.4-.7.2-1.4.5-2 .7-.3 0-.6.1-.9.1l-1 .2c-1 .1-1.8.2-2.4 0-.8-.2-1.5-.8-1.9-1.7-.1-.6-.3-1.6-.7-2.9s-.6-2.2-.7-2.9c-.3-2-.2-3.6.4-4.8 1.2-1 2.6-1.6 4.1-1.8 1.1-.2 2.3-.2 3.5 0 .6.3 1 .8 1.3 1.6.1.3.2 1 .5 2.1-.1.4-.3.5-.7.5-.4-.1-.6-.5-.7-1.3l-.1-.6c-.1-.6-.3-.8-.5-.8-.1 0-.2.1-.4.2 0 .1.4.4.5.7v.2c-.8-.1-1.7-.1-2.5.1-1.2.2-2.2.6-3.2 1.2-.1-.1-.2-.2-.2-.3s0-.4.2-.6c0-.1.1-.3.1-.3 0-.1-.2-.1-.5 0-.5.1-.7.4-.7 1V34c.1.2.1.5.2.8 0 .4 0 1 .1 1.7l.2 1.7c.3 1.8 1.1 2.8 2.2 3.1 0 0 0-.1.1-.2.1 0 .1-.1 0-.2 0 0-.1 0-.1-.1 1 .1 1.9 0 2.8-.1 1-.2 1.9-.5 2.5-1 .1.2.2.3.2.3.3-.2.3-.6.2-1.4-.1-.7 0-1.1.4-1.2h.4c.3.3.5.6.6 1.1.2.1.2.8.2 2zm13.6-1h-.3c-.2-.2-.5-.7-.8-1.6-.3-.7-.5-1.1-.8-1-.1 0-.3.1-.5.3-.1.1-.1.2-.1.2s.5 0 .6.4c-.6.2-1.5.3-2.5.5l-2.6.3c.4-.2 1.1-.4 2.1-.5.9-.1 1.6-.3 2.1-.7l-4.6.3c-.4.2-.6.8-.7 1.7-.1 1-.3 1.5-.6 1.5-.2 0-.4 0-.7-.2.6-5.2 1.2-9.8 1.9-13.7.2-.2.4-.4.7-.5s1.2 0 1.5 0c3 6.3 5 10.3 6 12.1-.2.6-.4.8-.7.9zm14.7-3.1c-.1.4-.3.6-.7.7-.2 0-.8 0-1 .1-.1 0-.2.1-.3.1-.5-.6-1.5-2-3.2-4.2-1.2-1.7-2.4-3-3.3-4 .5 1.2 1.4 2.5 2.6 4.1l3 4c.3.3.7.5 1.1.5h1.2c-.2.2-.4.3-.7.3-.5.1-1-.1-1.5-.7-.2-.2-.6-.7-1.2-1.5l-2.2-3c-.9-1.2-1.7-2.1-2.5-2.8 0 .2-.1.4-.2.4-.2 0-.4-.5-.6-1.6-.1-.3-.1-1.1-.1-1.5-.1-.7-.4-1.2-.9-1.3-.2.2-.3.4-.3.7.4 1.1.7 2.4 1 4 .1.6.2 1.5.4 2.7s.3 2.1.4 2.7c.1.7.3 1.4.4 1.9-.1 0-.4.4-.6.4-.1 0-.2 0-.3-.1-.2-.3-.3-.5-.4-.6l-1-6.2c-.5-2.8-.9-4.8-1-6.1a1.27 1.27 0 0 1 .9-.7c.2 0 .8-.1 1-.1l8.3 10.3c.1-.2.3-.3.3-.4-.2-.4-.4-.8-.8-1.1-.5-.4-.8-.8-1-1.2.2-.8.2-1.9 0-3.2l-.3-3.2c.1.4.1.9.2 1.4.1.7.3 1.5.6 2.6l.6 2.6c.1-.7 0-1.7-.1-2.8-.1-.4-.2-.9-.3-1.7-.2-.8-.3-1.3-.3-1.7-.2-1.2-.2-2.2-.1-2.9.1 0 .2-.1.3-.1.4-.1.7.3.8 1 .6 5.6 1.3 9.6 1.8 12.2zm14.4-3.3c-.2.7-.7 1.2-1.5 1.4-.7.2-1.4.5-2 .7-.3 0-.6.1-.9.1l-1 .2c-1 .1-1.8.2-2.4 0-.8-.2-1.5-.8-1.9-1.7-.1-.6-.3-1.6-.7-2.9s-.6-2.2-.7-2.9c-.3-2-.2-3.6.4-4.8 1.2-1 2.6-1.6 4.1-1.8 1.1-.2 2.3-.2 3.5 0 .6.3 1 .8 1.3 1.6.1.3.2 1 .5 2.1-.1.4-.3.5-.7.5-.4-.1-.6-.5-.7-1.3l-.1-.6c-.2-.4-.4-.7-.7-.7-.1 0-.2.1-.4.2 0 .1.4.4.5.7v.2c-.8-.1-1.7-.1-2.5.1-1.2.2-2.2.6-3.2 1.2-.1-.1-.2-.2-.2-.3s0-.4.2-.6.3-.4.3-.4c0-.1-.2-.1-.5 0-.5.1-.7.4-.7 1v1.5c.1.2.1.5.2.8.1.4.1.9.2 1.7.1.7.2 1.3.2 1.7.3 1.8 1.1 2.8 2.2 3.1 0 0 0-.1.1-.2.1 0 .1-.1 0-.2 0 0-.1 0-.1-.1 1 .1 1.9 0 2.8-.1 1-.2 1.9-.5 2.5-1 .1.2.2.3.2.3.3-.2.3-.6.2-1.4-.1-.7 0-1.1.4-1.2h.4c.3.3.5.6.6 1.1a24.67 24.67 0 0 0 .1 2zm9.4.7c-.9.2-1.8.2-2.7.2.5 0 1.3-.1 2.4-.4s1.8-.4 2.4-.4c-.6.3-1.3.5-2.1.6zm3.1-1.4c-3 .6-5.3 1-6.8 1.2-.3.1-.5-.3-.7-.6-.2-.9-.4-1.8-.5-2.8-.1-.8-.3-2-.6-3.6s-.4-2.8-.6-3.6c-.1-.9-.3-1.7-.5-2.4.3-.5.5-.8.6-.8.5-.1 1.2-.3 2.1-.5 1-.3 1.7-.4 2.2-.5 1.4-.2 2.6-.1 3.4.4-.1.5-.2.9-.3 1h-.4c-.3 0-.4.2-.3.4 0 .3.2.4.4.5-.5.3-1.2.5-1.9.7-.4.1-1.4.2-1.8.2-.5.1-1 .2-1.4.4-.1.2-.2.6-.1 1 0 .1.1.4.2.7s.1.5.1.7c.4 0 1.1 0 2-.1.8-.1 1.4-.1 1.8 0 .6.2 1.1.6 1.5 1.3 0 .2-.2.4-.5.6-.4.2-.5.3-.5.3 0 .1.2.1.7.2-.4.3-1.1.6-1.9.8-1 .2-1.7.4-2 .6-.2.5-.2 1-.2 1.4 0 .3.1.5.2.7.5.2 1.1.2 1.8.1.3 0 .6-.1 1.1-.2s.8-.2 1.1-.2c.5-.1.8-.1 1.2-.1-.3.2-.5.4-.7.5h1.2c.5 0 .8.3 1 .8.3.5-.3.9-.9.9zm12.6-1.2h-.2c.1 0 .3-.1.4-.1 0 .1-.1.1-.2.1zm2.2-1.2h-.3c-2.2.4-4.3.7-6.4 1-.1-.1-.3-.3-.5-.4-.9-5.6-1.7-9.7-2.2-12.5a.55.55 0 0 1 .3-.5c.1 0 .2-.1.5-.2l.5.4 2 11.2c.4.1 1 .1 1.6 0 .3-.1.7-.2 1.4-.3s1.1-.3 1.4-.3c.9-.2 1.7-.1 2.2.3.1.8-.1 1.3-.5 1.3zm12-1.2h-.2c.1 0 .3-.1.4-.1 0 0-.1 0-.2.1zm2.3-1.2h-.3c-2.2.4-4.3.7-6.4 1-.1-.1-.3-.3-.5-.4-.9-5.6-1.7-9.7-2.2-12.5a.55.55 0 0 1 .3-.5c.1 0 .2-.1.5-.2l.5.4 2 11.2c.4.1 1 .1 1.6 0 .3-.1.7-.2 1.4-.3.6-.2 1.1-.3 1.4-.3.9-.2 1.7-.1 2.2.3 0 .8-.1 1.2-.5 1.3zm10.5-1.2c-.9.2-1.8.2-2.7.2.5 0 1.3-.1 2.4-.4 1.1-.2 1.8-.4 2.4-.4-.6.3-1.3.4-2.1.6zm3-1.4c-3 .6-5.3 1-6.8 1.2-.3.1-.5-.3-.7-.6-.2-.9-.4-1.8-.5-2.8-.1-.8-.3-2-.6-3.6s-.4-2.8-.6-3.6c-.1-.9-.3-1.7-.5-2.4.3-.5.5-.8.6-.8.5-.1 1.2-.3 2.1-.5 1-.3 1.7-.4 2.2-.5 1.4-.2 2.6-.1 3.4.4-.1.5-.2.9-.3 1h-.4c-.3 0-.4.2-.3.4 0 .3.2.4.4.5-.5.3-1.2.5-1.9.7-.4.1-1.4.2-1.8.2-.5.1-1 .2-1.4.4-.1.2-.2.6-.1 1 0 .1.1.4.2.7s.1.5.1.7c.4 0 1.1 0 2-.1.8-.1 1.4-.1 1.8 0 .6.2 1.1.6 1.5 1.3 0 .2-.2.4-.5.6-.4.2-.5.3-.5.3 0 .1.2.1.7.2-.4.3-1.1.6-1.9.8-1 .2-1.7.4-2 .6-.1.7-.1 1.2-.1 1.6 0 .3.1.5.2.7.5.2 1.1.2 1.8.1.3 0 .6-.1 1.1-.2s.8-.2 1.1-.2c.5-.1.8-.1 1.2-.1-.3.2-.5.4-.7.5h1.2c.5 0 .8.3 1 .8.2.3-.3.7-1 .7zm15.2-4.4c-.4.9-1.2 1.6-2.1 2-.7.3-1.7.5-3 .7-1.5.2-2.4.4-2.9.5-.2.2-.5 0-.8-.5-.2-.7-.3-1.5-.5-2.3-.1-.9-.3-2.1-.5-3.7l-.5-3.7c-.2-1.1-.4-2.1-.7-3 .7-.3 1.5-.5 2.3-.8 1-.3 1.8-.6 2.5-.7 2.1-.4 3.7.2 4.7 1.6a31.66 31.66 0 0 1 1.2 4.4c.3 2 .4 3.8.3 5.5z"/><path d="M64.2 25.1c-.3-.4-.5-1-.6-1.8 0-.1-.1-.8-.3-2.1-.3.4-.4 1-.3 1.8 0 .2.1.9.3 2.1.3.2.5.3.7.2.1 0 .2-.1.2-.2z"/><use xlink:href="#B"/><use xlink:href="#B" x="42.7" y="-7.4"/><path d="M106.9 17.7c-.3-.4-.5-1-.6-1.8 0-.1-.1-.8-.3-2.1-.3.4-.4.9-.3 1.7 0 .2.1.9.3 2.1.3.2.5.3.7.2.1.1.2 0 .2-.1zm18.8-6.5c0 .1 0 .2.1.3 0 .1.2.4.2.5s0 .2-.1.3c-.6-.4-1.5-.5-2.5-.4-.3 0-.6.1-1.2.3l-1.2.3h-.6c-.3 0-.5-.1-.5-.2s.1-.2.3-.4c2.1-.3 3.4-.6 3.7-1-1.9 0-3.5.2-4.8.6a11.47 11.47 0 0 0 .2 3.6l.5 2.5c.3 1.1.4 1.9.5 2.5.1.5.1 1 .2 1.4.3.4.5.6.7.7l2.3-.6c1-.2 1.8-.4 2.3-.6.5-.6 1.2-1.5 1.6-1.4.1-1.1 0-2.4-.3-3.9-.2-1.1-.5-2.3-.9-3.7.2-.3-.4-.8-.5-.8z"/><defs ><path id="B" d="M64.6 28.3c-.1-.4-.1-.8-.1-1.1h-.1c-.1.2-.6.4-.5.7.1.1.1.5.1 1 .1.5.1.8.1 1.1.2 1 .5 1.5 1.1 1.6 0-.3-.1-.8-.2-1.5l-.4-1.8z"/></defs></svg>