<svg xmlns="http://www.w3.org/2000/svg" xmlns:xlink="http://www.w3.org/1999/xlink" viewBox="0 0 162.4 48" xmlns:v="https://vecta.io/nano"><path d="M3.42.012l158.96 18.176-3.408 29.805L.012 29.817z" fill="#fff"/><path d="M11.8 13.1c-.4-.7-1.1-1-2-1.1H8.1c-.7 0-1.2 0-1.6-.1-.1-.1-.1-.3-.1-.5 0-.1.1-.5.1-.6 0-.2-.1-.3-.4-.3-.2.5-.3 1.2-.5 2.1l-.3 2.2c.1.3.2.5.4.6a2.27 2.27 0 0 1 1.8-.5c.3 0 .8.2 1.5.4s1.2.3 1.6.3c.6 0 .9-.4 1-1.2 0-.1 0-.3.1-.7l.1-.6zm.7-.7c.1-.2 0-.4-.2-.7-.2-.4-.4-.5-.4-.5 0 .1.1.3.2.5.2.7.2 1.5.1 2.2s-.2 1.2-.5 1.7c.4-.2.6-.6.7-1.2v-1.1c0-.3.1-.6.1-.9zm-4.7 6.1zM21.3 16c-.1-.5-.2-1.1-.1-1.9 0-.1.1-.8.3-2.1-.4.3-.6.8-.8 1.6 0 .1-.1.9-.3 2.1.2.2.4.4.6.4.1 0 .2 0 .3-.1z"/><use xlink:href="#B"/><path d="M38.2 15.1c-.7.6-1.3 1.5-1.8 2.8-.7 1.7-1.2 2.7-1.5 3 .1.1.3.2.5.2.5.1 1.1-.2 1-.7.3.3.8.5 1.3.6h1.8c.1.3.2.7.5.6-.2-.7-.4-2-.6-3.9-.2-1.7-.5-3-.7-3.9-.3.6-.5 1-.5 1.3zm-.1 1.3c.2-.5.4-.8.5-1 0 .1.1.5.1.7-.1.2-.3.3-.6.3zm17.7.3v.3c0 .1.1.5.1.6s-.1.2-.2.2c-.5-.6-1.3-.9-2.3-1.1-.3 0-.7 0-1.2-.1-.5 0-.9 0-1.2-.1-.2-.1-.4-.1-.6-.2-.3-.1-.4-.2-.4-.3s.1-.2.4-.3c2.2.3 3.4.3 3.9.1-1.9-.5-3.5-.8-4.8-.8a11.28 11.28 0 0 0-.8 3.5c-.1.6-.1 1.4-.2 2.5 0 1.1-.1 1.9-.2 2.5-.1.5-.1 1-.2 1.4.1.5.3.8.5.8l2.4.1c1 .1 1.9.1 2.4.1.7-.4 1.5-1.1 1.9-.9.4-1 .7-2.3.8-3.8l.2-3.8s-.4-.7-.5-.7zm43.1 4.4c.6 1.4.8 3.1.5 5.2-.1 1.2-.4 2.5-.8 3.8.6-1 .9-2.3 1.1-3.8.1-1.2.1-2.6.1-3.9-.1-.7-.4-1.2-.9-1.3zm-.2 1.1c-.5-.3-1.2-.5-1.9-.6-.3 0-.9-.1-1.6-.1s-1.3-.1-1.6-.1c.3-.7.7-.9 1.3-.9.3 0 1 .3 1.4.3.3 0 .6 0 .8-.1l-2.1-.5h-1.1c-.6.1-1.1.9-1.5 2.2-.2.9-.3 1.7-.4 2.4-.3 2.5.1 4.3 1 5.3.4 0 .8.1 1.3.2l1.2.2c1.1.1 2-.1 2.8-.7.4-1.1.7-2.3.8-3.5.1-1.5 0-2.9-.4-4.1zm49.2-5.7h0l-14.4-1.7h-.1L119 13.2h-.1l-14.4-1.6h-.1L90.1 9.9H90L75.7 8.3h-.1L61.2 6.6h-.1L46.8 5h-.1L32.4 3.3h-.1L17.9 1.7h-.1L3.4 0 0 29.8l14.4 1.7h.1l14.4 1.6h.1l14.4 1.6h.1l14.4 1.6h.1l14.4 1.6h.1l14.4 1.6h.1l14.4 1.6h.1l14.4 1.6h.1l14.4 1.6h.1l14.4 1.6h.1l14 2.1 3.4-29.8-14.5-1.7zM13 20.2c0 .2-.1.7-.2 1.4l-.2 1.5c-.2.1-.6.3-.9.2-.2-.4-.3-.9-.2-1.6 0-.4.2-1.4.3-1.7.1-1-.2-1.7-.8-2 .4.4.5 1.2.4 2.2l-.3 1.8c-.1-.1-.2-.5-.2-1.1.1-.7 0-1.1 0-1.4-.1-.5-.4-.7-1-.7l-2.2-.3c-.8-.1-1.5 0-2.1.3-.1-.2-.1-.3-.1-.4s.1-.3.4-.5c.2-.2.3-.4.4-.4 0-.1-.2-.3-.6-.4s-.8.3-.8.6c-.1.3-.2.6-.2.9v2.7c-.1.7-.4 1.2-1.1 1.3l-.5-.9c.3-1.3.5-2.8.7-4.5l.4-4 .4-3.9c.3-.3.4-.5.5-.5.5.1 1.3.1 2.3.2l2.4.1c2.2.2 3.5 1.2 4 3l-.1 2.7c-.1 1-.5 1.8-1.1 2.2.5.6.6 1.8.4 3.2zm9.5 5.1c-.9-.1-1.8-.3-2.7-.6.5.2 1.3.3 2.4.3l2.4.3c-.7.1-1.4.1-2.1 0zm3.3-.4l-6.9-.8c-.3 0-.4-.5-.5-.8l.3-2.9 1-7.2.2-2.4c.4-.4.7-.6.8-.6.5.1 1.2.1 2.2.1l2.3.1c1.4.2 2.5.6 3.2 1.4l-.5.9c-.1 0-.3-.1-.4-.1-.3 0-.4 0-.4.3s.1.5.3.6c-.6.1-1.3.2-2.1.1-.4 0-1.4-.2-1.8-.3-.5-.1-1-.1-1.5 0-.2.2-.3.5-.4.9v.7c0 .3 0 .5-.1.7.4.2 1 .3 2 .5.8.1 1.4.3 1.7.5.5.3.9.9 1 1.7 0 .2-.3.4-.7.5s-.6.1-.6.1c0 .1.2.2.6.3-.5.2-1.2.3-2.1.2-1-.1-1.7 0-2.1 0-.3.6-.5 1.1-.5 1.5v.7c.4.3 1 .5 1.7.6.3 0 .6 0 1.1.1.5 0 .9 0 1.1.1l1.2.3c-.4.1-.6.2-.8.3l1.2.3c.5.2.7.5.8 1.1-.1.4-.7.6-1.3.5zm15.6 1.6c-.1 0-.2-.1-.3-.1-.2-.2-.2-.8-.3-1.8 0-.8-.2-1.2-.5-1.2-.1 0-.3 0-.6.1-.1.1-.1.2-.2.2 0 0 .5.2.5.5-.7 0-1.5-.1-2.6-.2l-2.6-.4c.4-.1 1.2 0 2.2.1.9.1 1.7.1 2.2 0l-4.6-1c-.4.1-.8.6-1.1 1.5s-.7 1.3-1 1.3c-.2 0-.4-.1-.6-.3 2-4.9 3.9-9.1 5.7-12.6.2-.2.5-.3.8-.2.3 0 1.1.4 1.4.4l2.4 13.3c-.2.3-.5.4-.8.4zm14.7.1c-.7.8-1.6 1.2-2.7 1.4-.7.1-1.8 0-3-.2-1.5-.2-2.5-.3-3-.3-.3.1-.5-.1-.6-.7 0-.7.1-1.5.2-2.3.1-.9.3-2.1.6-3.7s.5-2.8.5-3.7c.1-1.1.2-2.1.2-3.1.8-.1 1.6-.1 2.4-.1 1.1 0 1.9 0 2.6.1 2.1.2 3.5 1.2 4.1 2.9.1 1.5.1 3-.1 4.6-.2 1.8-.6 3.5-1.2 5.1zM85.3 31a.82.82 0 0 1-.8.5c-.2 0-.8-.2-1-.2-.1 0-.3 0-.3.1-.3-.7-.9-2.3-1.9-4.9-.7-2-1.4-3.6-2-4.7.2 1.3.6 2.8 1.3 4.7 1 2.6 1.6 4.1 1.7 4.6.2.4.5.6.9.8.2.1.6.2 1.1.3-.2.1-.5.2-.7.1-.5-.1-.9-.4-1.3-1.1-.2-.2-.4-.8-.8-1.7L80.3 26a15.35 15.35 0 0 0-1.7-3.4c-.1.2-.2.3-.3.3-.2 0-.2-.6-.1-1.7 0-.3.3-1.1.3-1.5.1-.7-.1-1.2-.5-1.5-.2.1-.4.3-.5.5 0 1.2 0 2.5-.2 4.1-.1.6-.2 1.5-.4 2.7s-.3 2.1-.4 2.7c-.1.7-.1 1.4-.2 1.9-.1 0-.5.2-.7.2-.1 0-.2-.1-.3-.2-.1-.3-.2-.5-.3-.7.2-1.3.5-3.4.8-6.3.3-2.8.5-4.9.8-6.1.3-.3.6-.5 1.1-.4.2 0 .8.2 1 .2L83.8 29c.2-.1.3-.2.4-.3 0-.5-.2-.9-.4-1.3-.3-.5-.5-1-.6-1.4.4-.7.7-1.7.9-3.1.3-1.9.5-3 .6-3.2-.1.4-.2.9-.2 1.4-.1.7-.1 1.6-.2 2.7 0 1.3-.1 2.2-.1 2.7.3-.7.5-1.6.6-2.7 0-.4.1-1 .1-1.7.1-.8.1-1.3.1-1.7.1-1.2.4-2.1.7-2.8h.3c.4 0 .6.5.5 1.2-.4 5.6-.9 9.6-1.2 12.2zm14.6.2c-.9 1.1-2.3 1.6-4.3 1.4-.4 0-.9-.1-1.5-.2s-1.1-.2-1.3-.2c-.9-.3-1.9-1.4-2.1-2.5v-3c0-1.3 0-2.4.1-3.2.3-2.4 1.2-4.1 2.7-4.8 1.8-.1 3-.1 3.7 0 2 .2 3.3 1.1 4 2.5.2 1.7.2 3.4-.1 5.2-.3 1.7-.7 3.3-1.2 4.8zm13.6-7.7c-.6.3-1 .4-1.2.3-.3 0-.4-.3-.3-.9.4-.1.8-.1 1.2-.1.5.1 1 .2 1.5.5-.2-.1-.6 0-1.2.2zm.4-1.1c-.7.1-1.2.1-1.6 0-.3 0-.5-.1-.8-.1l-.3.3c-.1 1.3-.3 3.2-.6 5.7L110 34c-.1.2-.2.2-.4.3-.2-.1-.3-.1-.5-.1-.2-.3-.3-.5-.3-.7a63.94 63.94 0 0 0 .7-5.6 63.94 63.94 0 0 1 .7-5.6c0-.1-.1-.2-.2-.2-.2 0-.3 0-.3-.1 0 .2-.1.7-.2 1.5s-.2 1.2-.3 1.2-.1-.4 0-1.1c-.3-.4-.7-.7-1.4-.8s-1.1-.2-1.4-.3h.2c.4 0 .8 0 1.2-.1.5-.1.7-.2.8-.3 0-.1-.1-.1-.4-.2h-.9c-.2.1-.4.1-.6.1-.3 0-.6-.3-.8-.6v-.3c.1-.6.4-.9.7-.9.6.1 1.5.2 2.6.2 1.2.1 2.1.2 2.6.2 1.5.2 2.8.5 3.8.9.1.4.1.7 0 .9-.2-.1-.7-.1-1.7 0zm11.5 13.3c-.3.3-.7.4-1.2.3-.1 0-.5-.1-1.2-.3-.2-.3-.3-.6-.3-.9 0-.2.1-.4.3-.6.3 0 .6-.3.7-.6v-.2l1.1-9.6c-.6-.2-.8-.5-.8-1 0-.3.3-.5.7-.9l1.2.1c.5.1.8.4.8.8l-.5.5c-.3.3-.5.6-.6.8-.1 1-.3 2.3-.4 3.9-.1 1.8-.2 3.1-.3 3.8-.1.6-.2 1.2-.2 1.7-.1.3.1.6.3.9.3.3.4.6.4.8v.5zm18.1 1.2c-.4.6-1 .9-1.9 1-.7 0-1.4.1-2.2.1-.3-.1-.6-.1-.9-.1l-1-.1c-1-.1-1.8-.4-2.3-.7-.7-.4-1.2-1.2-1.3-2.1 0-.6.1-1.6.2-3 0-1.3.1-2.3.2-3 .2-2 .8-3.5 1.7-4.5 1.4-.6 2.9-.8 4.5-.6 1.1.1 2.2.5 3.3 1 .5.4.7 1 .8 1.9 0 .3 0 1-.1 2.2-.2.3-.5.4-.8.3-.3-.2-.4-.7-.4-1.4l.1-.6c.1-.6 0-.9-.3-.9-.1 0-.3 0-.4.1 0 .1.3.5.3.8v.2c-.8-.3-1.6-.5-2.4-.6-1.2-.1-2.3-.1-3.4.3-.1-.1-.2-.2-.1-.3 0-.1.1-.3.4-.5s.4-.3.4-.3c0-.1-.2-.1-.5-.2-.5-.1-.8.2-1 .7-.1.5-.3 1-.4 1.5v.8c0 .4-.1.9-.3 1.7-.1.7-.2 1.3-.3 1.7-.2 1.8.2 3 1.3 3.6 0 0 .1-.1.2-.1s.1-.1.1-.2c0 0 0-.1-.1-.1.9.3 1.8.6 2.7.7 1.1.1 2 0 2.7-.2.1.2.1.3.1.3.3-.1.5-.5.6-1.3.1-.7.3-1 .7-1 .1 0 .2.1.4.1.2.4.3.8.2 1.3-.3-.3-.5.3-.8 1.5zm9 3.3c-.9-.1-1.8-.3-2.7-.6.5.2 1.3.3 2.4.3 1.1.1 1.9.2 2.4.3-.7.1-1.3.1-2.1 0zm3.3-.5c-3.1-.3-5.4-.5-6.9-.8-.3 0-.4-.5-.5-.8l.3-2.9 1-7.2c.1-.9.2-1.7.2-2.4.4-.4.7-.6.8-.6.5.1 1.2.1 2.2.1s1.8.1 2.3.1c1.4.2 2.5.6 3.2 1.4-.3.5-.4.8-.5.9-.1 0-.3-.1-.4-.1-.3 0-.4 0-.4.3s.1.5.3.6c-.6.1-1.3.2-2.1.1-.4 0-1.4-.2-1.8-.3-.5-.1-1-.1-1.5 0-.2.2-.3.5-.4.9v.7c0 .3 0 .5-.1.7.4.2 1 .3 2 .5.8.1 1.4.3 1.7.5.5.3.9.9 1 1.7 0 .2-.3.4-.7.5s-.6.1-.6.1c0 .1.2.2.6.3-.5.2-1.2.3-2.1.2-1-.1-1.7 0-2.1 0-.3.6-.5 1.1-.5 1.5v.7c.4.3 1 .5 1.7.6.3 0 .6 0 1.1.1.5 0 .9 0 1.1.1.5.1.8.2 1.2.3-.4.1-.6.2-.8.3l1.2.3c.5.2.7.5.8 1.1 0 .4-.7.7-1.3.5zm-4.4-8.8c-.1-.5-.2-1.1-.1-1.9 0-.1.1-.8.3-2.1-.4.3-.6.8-.8 1.6 0 .1-.1.9-.3 2.1.2.2.4.4.6.4.1 0 .2-.1.3-.1z"/><use xlink:href="#B" x="130" y="14.9"/><defs ><path id="B" d="M20.8 19.1c.1-.4.1-.8.2-1.1h-.1c-.1.2-.7.2-.7.6 0 .2-.1.5-.2.9-.1.5-.1.8-.2 1.1-.1 1 .1 1.6.6 1.8.1-.3.1-.8.2-1.5l.2-1.8z"/></defs></svg>