<svg xmlns="http://www.w3.org/2000/svg" viewBox="0 0 48.7 48.3" xmlns:v="https://vecta.io/nano"><path d="M46 .8c1.1 8.5 2.1 17.7-4.3 24.9-2.9 3.2-6.6 5.8-10.6 7.9-4.2 2.3-8.8 4.1-13.5 5.4-4.2 1.1-8.4 1.9-12.7 2.2 2.8-2.4 5.8-4.6 8.8-6.7.4-.3.3-.9 0-1.2-.4-.4-.9-.3-1.4 0-3.7 2.5-7.1 5.2-10.5 8.1h-1c-1.1 0-1.2 1.3-.3 1.7l15.2 5.2c1.2.4 1.6-1.2.5-1.6-3.7-1.2-7.4-2.5-11-3.8 8.9-.8 17.5-3.2 25.3-7.1 4.2-2.1 8.3-4.7 11.5-8 3.3-3.3 5.3-7.2 6.1-11.6.9-5.1.3-10.3-.4-15.4 0-1.1-1.9-1.1-1.7 0z" fill="#fff"/></svg>