<?xml version="1.0" encoding="utf-8"?>
<!-- Generator: Adobe Illustrator 25.2.1, SVG Export Plug-In . SVG Version: 6.00 Build 0)  -->
<svg version="1.1" id="Laag_1" xmlns:v="https://vecta.io/nano"
	 xmlns="http://www.w3.org/2000/svg" xmlns:xlink="http://www.w3.org/1999/xlink" x="0px" y="0px" viewBox="0 0 630 300"
	 style="enable-background:new 0 0 630 300;" xml:space="preserve">
<style type="text/css">
	.st0{opacity:0.5;}
	.st1{fill:#FFFFFF;enable-background:new    ;}
	.st2{fill:#FFFFFF;}
</style>
<g class="st0">
	<path class="st1" d="M132.5,128.9h5v5.8h-5V128.9z M151.9,190.1L151.9,190.1c22.1,0,40.1-18,40.1-40.1v-2.5h-80.2v2.5
		C111.8,172.1,129.8,190.1,151.9,190.1z M185.4,152.4h1.6c-0.2,2.8-0.7,5.5-1.6,8.2V152.4z M173,152.4h7.4v18
		c-2.1,2.9-4.6,5.4-7.4,7.6V152.4z M160.6,152.4h7.5v28.7c-2.4,1.2-4.9,2.2-7.5,2.8V152.4z M148.2,152.4h7.4v32.5
		c-2.4,0.3-5,0.3-7.4,0V152.4z M135.8,152.4h7.5v31.6c-2.6-0.7-5.1-1.6-7.5-2.8V152.4z M123.4,152.4h7.4v25.6
		c-2.8-2.1-5.4-4.7-7.4-7.6V152.4z M116.9,152.4h1.6v8.2C117.6,157.9,117,155.2,116.9,152.4L116.9,152.4z M160,134.1l0.2,1.4
		l0.4-0.1v1h28.1v-5H180l4.2-0.9l-1-4.8l-16.3,3.4l7.5-5.6l-2.9-4L155.8,131l2.9,4L160,134.1z M151.9,199.9c27.6,0,50-22.4,50-50
		s-22.4-50-50-50c-13.4,0-25.6,5.3-34.5,13.9l-4.9-1.4l-1.3,4.8l2.4,0.7c-7.3,8.7-11.6,19.9-11.6,32
		C101.9,177.6,124.3,199.9,151.9,199.9z M118.8,119.4l5.2,1.5c-2.3,3.2-3.1,7.6-2,12c2,7.3,8.9,11.9,15.5,10.1
		c3.3-0.9,5.9-3.1,7.5-6.3c1.4-2.9,1.8-6.2,1.1-9.5l3,0.9l1.3-4.8l-7.1-2c-3.1-4.1-8.2-6.2-13-4.9c-0.6,0.2-1.3,0.4-1.9,0.7
		l-5.6-1.6c7.8-6.6,17.9-10.5,28.9-10.5c24.8,0,45,20.2,45,45s-20.2,45-45,45s-45-20.2-45-45C106.9,138.1,111.4,127.4,118.8,119.4z
		 M129.3,122.3l11,3.1c0.4,0.7,0.7,1.5,0.9,2.2c0.6,2.3,0.4,4.7-0.6,6.7c-0.9,1.9-2.5,3.2-4.3,3.7c-4,1.1-8.2-1.9-9.5-6.6l0,0
		C125.8,127.9,126.9,124.3,129.3,122.3L129.3,122.3z M480.1,148.9l-0.4,0.2l0.4,1.2c0.4,1,0.4,1.7,0.4,6.2l0.1,5.5
		c0,0.2,0.1,0.4,0.3,0.4s0.4,0.4,0.5,0.8c0.1,0.5,0.7,1.8,1.3,3l1.3,2.9c0.1,0.6,0.4,0.9,1.5,1.7c3.2,2.4,7,3.9,11.4,4.4
		c0.9,0.1,1.9,0.2,2.2,0.3l0,0c3.7,0.5,14.3-0.8,18.4-2.3c2.8-1,6.2-4.5,8.2-8.4c0.5-0.9,0.7-1.7,1-4c0.7-5,0.8-6.8,1-18.9l0.3-14.1
		c0.2-2.6,0-3.3-1-4c-0.6-0.4-0.9-0.5-2.6-0.5c-3.2,0-9.5,0.3-10.2,0.5c-1.4,0.4-1.4,0.1-1.6,8c-0.1,4.3-0.2,7.1-0.4,7.2
		c-0.1,0.1-0.2,1.7-0.2,4c0,2.4-0.1,4-0.2,4.3s-0.2,0.7,0,1.1c0.3,1.2,0.3,4.7,0.1,5c-0.2,0.2-0.2,0.6,0,1.4c0.3,1.6,0,3.7-0.5,5.1
		c-0.2,0.6-0.4,1.1-0.4,1.1c0.1,0-0.3,0.4-0.7,1c-0.4,0.5-0.9,1-1,1s-0.7,0.3-1.3,0.6c-1.2,0.6-2.1,0.7-2.1,0.1
		c0-0.2-0.1-0.3-0.2-0.3s-0.3,0.2-0.3,0.4c0,0.3-0.1,0.4-0.4,0.4c-0.2,0-0.9,0.1-1.4,0.1c-0.9,0.1-1,0.1-1.2-0.4
		c-0.2-0.4-0.4-0.5-1.2-0.6c-1.2-0.1-2.7-0.5-3.3-0.7c-0.2-0.1-0.7-0.7-0.9-1.4c-0.5-1.1-0.5-1.4-0.6-4c-0.1-2.4,0-2.9,0.2-3.2
		c0.3-0.3,0.3-0.4,0-0.6c-0.5-0.4-0.5-3.6-0.2-13.3l0.2-11.2c-0.1-1.5,0-1.9,0.2-2.3c0.3-0.5,0.3-0.5-0.1-1.1
		c-0.7-1.1-0.9-1.2-3.8-1.5c-4.8-0.5-7.7-0.4-10.1,0.6l-1.2,0.5l-0.1,2.1c-0.1,1.1-0.1,4.1-0.1,6.5v4.4l-0.5,0.6
		c-0.6,0.7-0.6,0.9-0.1,1.2c0.3,0.2,0.3,0.4,0.2,1.2c-0.2,1-0.3,6.4-0.2,7.1C480.5,148.7,480.4,148.9,480.1,148.9L480.1,148.9z
		 M440.9,191.8c0-0.1,0.1-0.1,0.2-0.1c0.3,0,3.6-2.3,5.3-3.7c1.4-1.2,5.4-5,6.8-6.6c2.2-2.5,3.4-4.3,3.9-5.8s1.7-3.6,3-5
		c0.7-0.8,0.9-1.1,1.1-2.4l1.2-4.2c1.5-4.7,1.6-5.5,1.7-8.1c0-1.4,0.1-1.5,0.4-1.7c0.4-0.2,0.4-0.2,0.1-0.5
		c-0.2-0.2-0.2-0.5-0.1-1.9c0.3-2.2,0.1-7.3-0.4-10.3c-0.6-3.5-2.3-9.8-2.6-9.8c-0.1,0-0.1-0.2-0.2-0.5c0-0.8-2.2-5.1-4.1-7.9
		c-3.5-5.4-6.7-9.3-9.8-11.8c-0.8-0.7-1.6-1.4-2.5-2c-5.8-4.9-14.7-8-26.6-9.2c-2.4-0.2-3-0.2-4.8,0c-11.4,1.5-21.1,5-28.4,10.5
		c-2.6,2-10.2,9.5-9.5,9.5c0.1,0,0,0.2-0.2,0.3c-0.5,0.5-0.9,1-1.3,1.6c-0.5,0.7-1.3,1.7-1.8,2.3c-0.7,0.7-1.2,1.6-1.9,3.5
		c-2.7,6.3-4.3,11.8-5.2,17.6c-0.5,3.1-0.6,9.6-0.2,12.8c0.4,3.6,0.7,4.5,1.5,5.4c0.7,0.8,0.8,1.2,0.4,1.8c-0.2,0.3-0.2,0.4,0.3,0.8
		c0.3,0.3,0.6,0.8,0.8,1.2c0.1,0.4,0.9,2.3,1.7,4.1l1.6,3.9c0.1,0.4,1.6,2.7,2.4,3.6c0.2,0.2,1.1,1.3,2,2.4s2.4,2.7,3.4,3.6
		c1.8,1.7,4.9,4.4,5.1,4.4c0.1,0,0.3,0.2,0.5,0.4c0.4,0.4,4.2,3,4.4,3c0,0,0.5,0.3,0.9,0.6c1.4,1,6.5,3.3,9,4.2
		c3.2,1.1,6.1,1.7,9.9,2.1l0,0c2.3,0.2,8.5,0.1,10.9-0.3c7.6-1.1,13.5-3.2,20.5-7.3C440.6,192.1,440.9,191.8,440.9,191.8
		L440.9,191.8z M437.9,176.8c-0.4,0.3-1.3,1.1-2,1.9s-1.4,1.4-1.5,1.4s-0.6,0.3-1.2,0.7c-1.9,1.3-5.5,3.1-7.2,3.7
		c-1.6,0.5-4.8,1.2-7.8,1.7l0,0c-1.8,0.3-5.9,0.4-7.9,0.2c-5.9-0.6-10.6-2.1-15-4.9c-5.3-3.3-10.8-9.3-12.2-13.4
		c-0.3-0.8-0.6-1.5-0.7-1.5s-0.1-0.1-0.1-0.2c0.1-0.1-0.3-1.2-0.8-2.4c-1.4-3.2-1.9-5.2-1.9-7.1c0-2.1,0.1-2.7,0.6-2.7
		c0.6,0,0.6-0.3,0-0.6c-0.7-0.3-0.7-0.2-0.3-3.2c0.1-1.2,0.3-2.2,0.5-2.2c0.1,0,0.1-0.2,0-0.6c-0.1-0.3-0.1-0.5,0-0.6
		c0.1,0,0.1-0.2,0-0.6s-0.1-0.5,0-0.6c0.1,0,0.2-0.3,0.2-0.6s0.1-0.6,0.3-0.8c0.3-0.3,0.3-0.3-0.2-0.5c-0.6-0.1-0.6-0.3-0.2-0.7
		c0.2-0.2,0.2-0.3,0.1-0.4c-0.3-0.3-0.2-1,0.5-3.3c1-2.9,1.4-4,2.3-5.8c1.8-3.5,5.3-8.1,7.8-10.3c5.8-5,13.2-8.3,20.1-9
		c3.1-0.3,9,0.2,12.4,1.1c3.9,1,8.1,2.9,11,4.8l1.6,1.1c0.1,0,1.7,1.5,3.3,2.9c2.6,2.5,3.9,4.3,5.3,7.1c3,6.2,4.4,10.6,3.7,11.3
		c-0.3,0.3-0.3,0.3,0.1,0.6c0.2,0.2,0.3,0.3,0.2,0.4s-0.1,0.4,0.1,1.3c0.2,0.8,0.3,2.1,0.3,3.8c0,2.3-0.1,2.8-0.4,3.8
		c-0.5,1.4-0.5,1.4,0,1.4c0.3,0,0.4,0.1,0.3,0.3s-0.1,0.8-0.1,1.4c0,0.8-0.1,1.1-0.3,1.1s-0.3,0.4-0.4,1.3c-0.1,0.7-0.2,1.5-0.3,1.7
		s-0.3,1.1-0.4,2c-0.3,1.9-0.5,2.4-1.5,3.9s-3.8,6.2-3.8,6.3s-0.1,0.2-0.1,0.2c-0.1,0-0.5,0.5-0.9,1
		C440.3,174.6,439.2,175.8,437.9,176.8L437.9,176.8z"/>
	<g>
		<path id="B" class="st2" d="M346.2,155.8c-0.2-0.8-0.4-1.5-0.7-2.3l-0.7-2.5c-0.1-0.4-0.3-0.9-0.5-1.1c-0.1-0.2-0.3-0.7-0.3-1.1
			c0-0.7-0.5-1.9-0.9-2.3c-0.3-0.2-0.6-1.2-0.6-1.8c0-0.4-0.1-1-0.3-1.4c-0.8-1.8-3.5-9.5-4.5-12.8c-0.3-1.1-0.7-2.1-0.7-2.2
			c-0.1-0.1-0.3-0.8-0.6-1.6l-0.5-1.4l-5.8-0.1c-5.8-0.1-7.1,0-9.3,0.6c-0.6,0.2-1,0.4-1,0.6c0,1-1.5,5.4-3.3,9.5
			c-0.5,1.3-1.3,3.1-1.6,4s-0.7,2-0.9,2.3c-0.1,0.3-1.3,3.2-2.6,6.5c-2.5,6.1-3.7,9.6-4.7,13.1c-0.3,1.2-1.1,3.2-1.8,4.6
			c-1.8,3.7-2.1,4.4-2.6,6.3c-0.4,1.5-0.6,2.7-0.4,2.8l6.4,0.2l6.9,0.2c0.4,0,0.6-0.1,0.9-0.5c0.2-0.3,0.4-0.5,0.5-0.5
			c0.1,0.1,0.2-0.5,0.3-1.7c0.1-1.4,0.2-1.9,0.6-2.6c0.9-1.5,0.6-1.5,6-1.7l8.2-0.2h3.4l0.5,0.8c0.4,0.6,0.6,1.2,0.7,2.8
			c0.3,2.5,0.6,3.2,1.6,3.4c0.4,0.1,3,0.1,5.8,0.2c5.5,0,8.4-0.3,8.4-0.8c0-0.2-2.5-8.5-5.1-16.5
			C346.7,157.3,346.3,156.1,346.2,155.8L346.2,155.8z M327.5,146.2c0.2-1.5,0.3-1.6,0.7-1.4c0.2,0.1,0.4,0.4,0.4,0.7
			c0,0.3,0.1,0.6,0.2,0.9c0.1,0.3,0.1,0.5,0,0.7c-0.1,0.1-0.5,0.3-0.8,0.3h-0.6L327.5,146.2L327.5,146.2z M331.1,157.3l-0.1,0.6
			l-2.2,0.2l-2.6,0.2c-0.5,0-1.8-0.6-2.2-1.1c-0.3-0.4-0.3-0.4,0.2-1.7c0.3-0.9,0.6-1.4,0.9-1.5c0.3-0.2,0.4-0.3,0.2-0.4
			c-0.2-0.2-0.1-0.3,0.3-0.6s0.5-0.3,0.2-0.7c-0.4-0.6-0.4-1,0-0.7c0.2,0.1,0.4,0.2,0.6,0.1s0.3-0.5,0.3-1.8c0-1.9-0.1-1.8,1.4-1.6
			c0.5,0.1,0.7,0.2,0.7,0.5c0,0.2,0.1,0.4,0.3,0.4s0.3,0.2,0.3,1s0.1,1.1,0.4,1.4l0.4,0.4l-0.5,0.2c-0.5,0.2-0.6,0.5-0.2,0.5
			s0.8,0.7,0.9,1.6c0.1,0.4,0.2,0.7,0.4,1.1c0.2,0.2,0.2,0.3,0.2,0.3c-0.1,0,0,0.2,0.1,0.4C331.1,156.5,331.2,156.9,331.1,157.3
			L331.1,157.3z"/>
	</g>
	<g>
		<path id="C" class="st2" d="M436.1,130.4c-0.1,0-0.2-0.2-0.2-0.3s-0.4-0.7-1-1.3c-2.2-2.3-2.2-2.2-1.9-2.4
			c0.2-0.1,0.1-0.2-0.3-0.2c-0.9,0-2.4-0.9-3.3-1.8c-0.7-0.8-0.8-0.9-1.8-0.9c-0.7,0-1.2-0.1-1.5-0.4c-0.3-0.2-1.1-0.5-1.9-0.6
			c-1.5-0.2-2.7-0.6-2.9-0.8c-0.1-0.1-0.9-0.2-1.8-0.4c-2.4-0.3-5.5,0-11.5,1.2l-4.8,1l-0.7,0.7c-0.5,0.5-0.9,0.7-1.3,0.7
			c-0.3,0-0.5,0.1-0.5,0.2c0.1,0.1-0.1,0.4-0.3,0.7c-0.3,0.4-0.5,0.5-0.8,0.4s-0.4-0.1-0.2,0.1c0.3,0.3,0.3,0.5-0.1,0.6
			c-0.2,0.1-0.6,0.4-0.9,0.7s-0.6,0.5-0.7,0.5c-0.1-0.1-2.2,2.3-3.3,3.6c-0.4,0.6-1.1,1.2-1.4,1.3c-0.4,0.2-0.6,0.3-0.5,0.6
			c0.1,0.2,0,0.5-0.2,0.6c-0.3,0.3-0.3,0.4,0,0.6c0.2,0.2,0.2,0.3-0.2,0.8c-0.3,0.5-0.7,1.1-1,1.6c-0.3,0.6-0.7,1.2-0.9,1.5
			c-0.3,0.3-0.4,0.7-0.4,1.9c0,1.1-0.2,1.7-0.5,2.4c-0.2,0.5-0.5,1.4-0.6,2c-0.1,0.9-0.2,1.1-0.6,1.3c-0.3,0.1-0.4,0.2-0.3,0.2
			c0.3,0,0.4,0.7,0.2,1c-0.2,0.2-0.2,0.3,0.1,0.7c0.2,0.3,0.2,0.5,0.1,0.6c-0.1,0-0.2,0.3-0.1,0.8c0.2,1,0,3.6-0.3,4
			c-0.2,0.2-0.2,0.3,0.3,0.7s0.5,0.6,0.6,2.4c0.1,1.6,0.2,2,0.4,2.1c0.3,0.2,0.3,0.2,0,0.6s-0.3,0.5,0.1,1.1
			c0.2,0.4,0.5,0.7,0.6,0.7s0.5,0.7,0.9,1.6c0.7,1.7,2.1,4.3,3.4,6.1c2,2.8,6.8,6.8,9.5,8c0.6,0.3,2.2,0.5,5.8,1l6,0.6
			c3.8,0.2,8.5-0.7,11.7-2.3c4.1-2.1,8.4-6,11.2-10.2l1.5-2.3v-2.9c0-2.6,0-2.9-0.4-3.3c-0.3-0.3-1-0.4-7.2-0.7
			c-6-0.3-6.9-0.3-7.4,0c-0.7,0.4-1.2,1.1-1.6,2.1c-0.2,0.4-0.5,1.3-0.7,1.9c-0.5,1.4-1,2-2.8,3.2c-1.5,1-2.4,1.2-2.7,0.7
			c-0.1-0.3-0.2-0.2-0.6,0.1c-0.4,0.4-0.5,0.4-0.6,0.1s-0.3-0.3-0.7-0.2c-0.3,0.1-0.7,0-0.8-0.1c-0.2-0.2-0.3-0.1-0.3,0.2
			s-0.1,0.4-0.3,0.3s-0.9-0.2-1.6-0.3c-1.3-0.2-2.1-0.6-2.2-1.1c-0.1-0.2-0.2-0.3-0.6-0.3s-0.6-0.1-1-0.8c-0.3-0.4-0.7-0.8-1-0.9
			s-0.6-0.4-0.9-1.1c-0.4-0.9-0.4-1.4-0.1-2.1c0.1-0.2,0-0.3-0.3-0.4c-0.5-0.1-0.7-0.6-0.9-2.7c-0.1-0.9,0-1.8,0.1-2.3
			c0.2-0.6,0.2-1.1,0-2.1c-0.2-1.1-0.2-1.5,0.1-2.2c0.2-0.6,0.3-1.3,0.2-1.9c-0.1-1.6-0.1-1.9,0.3-2.7c0.3-0.6,0.4-1.1,0.4-2
			s0.1-1.4,0.3-1.9c0.5-0.9,2.2-2.6,4.1-4c1.3-1,1.6-1.1,2.9-1.3c3.6-0.5,7.1,0.5,9.2,2.7c0.7,0.8,1,1.6,1,3c0,1.2,0.3,1.8,1.1,2.1
			c0.3,0.1,2.9,0.1,7.2-0.1l7.3-0.3c0.5,0,0.5-0.1,0.5-0.5c0-1-0.6-3.7-1.1-5.3C438.7,134.6,436.7,130.8,436.1,130.4L436.1,130.4z"
			/>
	</g>
</g>
</svg>
