<svg xmlns="http://www.w3.org/2000/svg" viewBox="0 0 110 110" xmlns:v="https://vecta.io/nano"><path d="M94.3 58.7l-1.1-.8 8.9-2.9-8.9-2.9 1.1-.8 15.7-8-19.4-3 11.5-15.9-16.7 5.4-1.3.2 4.2-8.3-8.3 4.2.2-1.3 5.4-16.7-15.9 11.5-3-19.4-8 15.7-.8 1.1L55 7.9l-2.9 8.9-.8-1.1-8-15.7-3 19.4L24.4 7.9l5.4 16.7.2 1.3-8.3-4.2 4.2 8.3-1.3-.2-16.7-5.4 11.5 15.9-19.4 3 15.7 8 1.1.8L7.9 55l8.9 2.9-1.1.8-15.7 8 19.4 3L7.9 85.6l16.7-5.4 1.3-.2-4.2 8.3 8.3-4.2-.2 1.3-5.4 16.7 15.9-11.5 3 19.4 8-15.7.8-1.1 2.9 8.9 2.9-8.9.8 1.1 8 15.7 3-19.4 15.9 11.5-5.4-16.7-.2-1.3 8.3 4.2-4.2-8.3 1.3.2 16.7 5.4-11.5-15.9 19.4-3z" fill="#fff"/><path d="M55 90.2c-19.3 0-35-15.7-35-35 0-8.5 3.1-16.3 8.1-22.4l-1.7-.5.9-3.3 3.4 1c6.3-6 14.8-9.7 24.2-9.7 19.3 0 35 15.7 35 35C90 74.5 74.3 90.2 55 90.2M31.8 33.8c-5.2 5.6-8.4 13.1-8.4 21.4 0 17.4 14.1 31.5 31.5 31.5s31.5-14.1 31.5-31.5-14.1-31.5-31.5-31.5c-7.7 0-14.8 2.8-20.2 7.4l3.9 1.1c.4-.2.9-.4 1.3-.5 3.4-.9 6.9.6 9.1 3.4l5 1.4-.9 3.3-2.1-.6c.5 2.3.2 4.6-.8 6.7-1.1 2.2-3 3.8-5.3 4.4-4.6 1.2-9.5-1.9-10.9-7.1-.8-3.1-.2-6.1 1.4-8.4l-3.6-1zm5.6 8.5c.9 3.3 3.9 5.4 6.6 4.6 1.3-.3 2.4-1.3 3-2.6.7-1.4.8-3.1.4-4.7-.1-.5-.4-1.1-.6-1.6l-7.7-2.2c-1.6 1.4-2.3 4-1.7 6.5h0zm17.6 41c-15.5 0-28.1-12.6-28.1-28.1v-1.7H83v1.7c.1 15.5-12.5 28.1-28 28.1h0zm-2.6-3.6a22.61 22.61 0 0 0 5.2 0V56.9h-5.2v22.8zm8.7-22.8V79c1.8-.5 3.6-1.1 5.2-2V56.9h-5.2zM43.7 77c1.7.9 3.4 1.5 5.2 2V56.9h-5.2V77zM35 69.5c1.5 2 3.2 3.8 5.2 5.3V56.9H35v12.6zm34.8-12.6v17.9c2-1.5 3.7-3.3 5.2-5.3V56.9h-5.2zm-39.3 0c.1 2 .5 3.9 1.1 5.7v-5.7h-1.1zm47.9 0v5.7c.6-1.9 1-3.8 1.1-5.7h-1.1zm2.3-11.3H61.1V45h-.2l-.2-.9-.9.6-2.1-2.8 11-8.1 2.1 2.8-5.3 3.9 11.4-2.4.7 3.4-2.9.6h6.1v3.5h-.1zm-35.8-1.1h-3.5v-4h3.5v4z" fill="#1a161a"/></svg>